<svg width="74" height="82" viewBox="0 0 74 82" fill="none" xmlns="http://www.w3.org/2000/svg">
<path d="M38.6139 1.36914H10.2386C5.36725 1.36914 1.41827 5.31815 1.41827 10.1895V72.5906C1.41827 77.4619 5.36725 81.4109 10.2386 81.4109H38.6139C43.4853 81.4109 47.4343 77.4619 47.4343 72.5906V10.1895C47.4343 5.31815 43.4853 1.36914 38.6139 1.36914Z" fill="#F35A05"/>
<path d="M38.694 81.9464H10.1587C7.69955 81.9431 5.34209 80.9648 3.60323 79.226C1.86438 77.4871 0.88607 75.1297 0.882812 72.6705V10.1156C0.886065 7.65593 1.86418 5.29784 3.60286 3.55801C5.34153 1.81818 7.69898 0.838503 10.1587 0.833618H38.694C41.1537 0.838503 43.5111 1.81818 45.2498 3.55801C46.9885 5.29784 47.9666 7.65593 47.9698 10.1156V72.6705C47.9666 75.1297 46.9883 77.4871 45.2494 79.226C43.5106 80.9648 41.1531 81.9431 38.694 81.9464ZM10.1587 1.92924C7.99212 1.94058 5.91774 2.8071 4.38691 4.34024C2.85607 5.87338 1.99266 7.94906 1.98457 10.1156V72.6705C1.98783 74.8456 2.8533 76.9306 4.3913 78.4687C5.9293 80.0066 8.01436 80.8721 10.1894 80.8754H38.7248C40.8977 80.8689 42.9796 80.002 44.5149 78.4643C46.0502 76.9267 46.914 74.8435 46.9173 72.6705V10.1156C46.9156 7.93947 46.0509 5.85286 44.5127 4.31353C42.9746 2.7742 40.8886 1.90787 38.7124 1.90461L10.1587 1.92924Z" fill="black"/>
<path d="M47.4343 9.88171H1.41827V70.2393H47.4343V9.88171Z" fill="white"/>
<path d="M47.4343 70.7808H1.41831C1.34799 70.7808 1.27834 70.767 1.21337 70.7401C1.1484 70.7132 1.08939 70.6737 1.03966 70.624C0.989934 70.5743 0.950485 70.5152 0.923574 70.4503C0.896663 70.3853 0.882812 70.3157 0.882812 70.2453V9.88164C0.882812 9.73961 0.939234 9.6034 1.03966 9.50298C1.14009 9.40255 1.27629 9.34613 1.41831 9.34613H47.4343C47.5764 9.34613 47.7126 9.40255 47.813 9.50298C47.9134 9.6034 47.9698 9.73961 47.9698 9.88164V70.2453C47.9698 70.3874 47.9134 70.5236 47.813 70.624C47.7126 70.7244 47.5764 70.7808 47.4343 70.7808ZM1.98457 69.7098H46.9173V10.4171H1.98457V69.7098Z" fill="black"/>
<path d="M29.0673 75.1141H20.7517C20.6097 75.1141 20.4735 75.0577 20.373 74.9573C20.2726 74.8569 20.2162 74.7207 20.2162 74.5786C20.2162 74.4366 20.2726 74.3004 20.373 74.2C20.4735 74.0996 20.6097 74.0432 20.7517 74.0432H29.0673C29.2093 74.0432 29.3455 74.0996 29.446 74.2C29.5464 74.3004 29.6028 74.4366 29.6028 74.5786C29.6028 74.7207 29.5464 74.8569 29.446 74.9573C29.3455 75.0577 29.2093 75.1141 29.0673 75.1141Z" fill="black"/>
<g opacity="0.13">
<path d="M43.2857 9.14925C41.7161 9.10617 40.1466 9.0323 38.577 9.05077C34.3464 9.00973 30.1198 9.00973 25.8974 9.05077C22.5736 9.05077 19.2437 9.21696 15.926 8.98922C11.8513 8.86612 7.77043 8.62607 3.69571 8.7861C3.12328 8.7861 2.55083 8.7861 1.9784 8.7861C1.63297 8.71814 1.27514 8.75456 0.950496 8.89074C0.618931 9.03102 0.346199 9.28185 0.178734 9.60055C0.0112689 9.91925 -0.0406028 10.2861 0.0319554 10.6388C0.104514 10.9914 0.297045 11.308 0.576731 11.5347C0.856417 11.7614 1.206 11.8842 1.56601 11.8821C3.55413 12.0237 5.54842 11.8821 7.54269 11.9129C9.91858 11.9129 12.2883 12.1037 14.6581 12.153C23.5215 12.2022 32.3911 12.2391 41.2545 12.0853C42.4301 12.0853 43.6119 12.0853 44.7876 12.0545C45.7601 12.1653 46.7511 11.7036 46.7634 10.608C46.6341 8.71223 44.5968 9.21696 43.2857 9.14925Z" fill="black"/>
</g>
<path d="M49.3793 55.1837L60.6002 66.22C62.529 68.1903 64.5676 70.05 66.7061 71.7904C67.8633 72.7014 69.1682 73.5631 70.5716 73.5631C71.3198 73.5576 72.0375 73.2654 72.5768 72.7467C73.1161 72.228 73.436 71.5223 73.4707 70.7748C73.4707 69.5438 72.6028 68.5343 71.7964 67.6972C65.8464 61.4148 59.6338 55.4648 53.1586 49.8472C51.9522 51.583 50.7642 53.3187 49.3793 55.1837Z" fill="white"/>
<path d="M70.5469 74.0986C68.9712 74.0986 67.5986 73.1938 66.3491 72.2151C64.1936 70.461 62.1386 68.5869 60.1939 66.6016L48.9731 55.5653C48.8811 55.473 48.8255 55.3506 48.8164 55.2206C48.8074 55.0906 48.8455 54.9617 48.9238 54.8575C50.3272 53.011 51.5213 51.2506 52.6846 49.5518C52.7279 49.4897 52.7836 49.4373 52.8482 49.3981C52.9129 49.3589 52.9851 49.3337 53.0601 49.324C53.1346 49.3119 53.2109 49.3167 53.2834 49.338C53.3558 49.3593 53.4225 49.3966 53.4786 49.4471C59.9293 55.036 66.2137 61.0496 72.1534 67.2971C73.0336 68.2204 73.963 69.3222 74 70.7563C73.9989 71.1773 73.914 71.5939 73.7502 71.9818C73.5864 72.3696 73.347 72.7209 73.0459 73.0152C72.3873 73.6902 71.4898 74.0792 70.5469 74.0986ZM50.0687 55.1099L60.951 65.8199C62.8667 67.7762 64.8887 69.6255 67.0077 71.3595C68.1095 72.2212 69.2974 73.0152 70.5469 73.0152C71.1968 72.9969 71.8144 72.7278 72.2704 72.2643C72.6654 71.8668 72.8867 71.329 72.8859 70.7686C72.8859 69.7284 72.1288 68.8482 71.3594 68.0357C65.5797 61.9421 59.4799 56.0886 53.214 50.6351C52.2538 52.0938 51.2259 53.5772 50.0687 55.1099Z" fill="black"/>
<path d="M34.767 14.4858C30.1541 14.4846 25.6444 15.8513 21.8083 18.4132C17.9723 20.9751 14.9821 24.6171 13.2159 28.8785C11.4498 33.1399 10.9871 37.8294 11.8863 42.3538C12.7855 46.8782 15.0062 51.0344 18.2675 54.2966C21.5289 57.5589 25.6845 59.7807 30.2087 60.681C34.7329 61.5814 39.4224 61.1199 43.6843 59.3549C47.9462 57.5899 51.5889 54.6007 54.1519 50.7653C56.7148 46.9299 58.0828 42.4206 58.0828 37.8077C58.0836 34.7453 57.4811 31.7128 56.3097 28.8832C55.1383 26.0537 53.4211 23.4827 51.2559 21.317C49.0908 19.1513 46.5202 17.4333 43.691 16.2612C40.8618 15.0891 37.8294 14.4858 34.767 14.4858ZM34.767 55.5161C31.2613 55.521 27.833 54.4855 24.9161 52.5409C21.9991 50.5963 19.7248 47.8299 18.381 44.592C17.0371 41.3541 16.6843 37.7902 17.367 34.3516C18.0497 30.9131 19.7374 27.7544 22.2163 25.2755C24.6952 22.7966 27.8539 21.1089 31.2925 20.4262C34.731 19.7434 38.2949 20.0963 41.5328 21.4402C44.7707 22.784 47.5371 25.0583 49.4818 27.9752C51.4264 30.8921 52.4618 34.3205 52.4569 37.8262C52.4569 42.5195 50.5937 47.0209 47.2768 50.3414C43.9598 53.6618 39.4603 55.5297 34.767 55.5346V55.5161ZM34.767 55.5161C31.2613 55.521 27.833 54.4855 24.9161 52.5409C21.9991 50.5963 19.7248 47.8299 18.381 44.592C17.0371 41.3541 16.6843 37.7902 17.367 34.3516C18.0497 30.9131 19.7374 27.7544 22.2163 25.2755C24.6952 22.7966 27.8539 21.1089 31.2925 20.4262C34.731 19.7434 38.2949 20.0963 41.5328 21.4402C44.7707 22.784 47.5371 25.0583 49.4818 27.9752C51.4264 30.8921 52.4618 34.3205 52.4569 37.8262C52.4569 42.5195 50.5937 47.0209 47.2768 50.3414C43.9598 53.6618 39.4603 55.5297 34.767 55.5346V55.5161Z" fill="white"/>
<path d="M34.767 61.6774C30.0477 61.6799 25.4336 60.2826 21.5085 57.6623C17.5834 55.042 14.5237 51.3165 12.7163 46.957C10.9089 42.5974 10.435 37.7998 11.3547 33.1709C12.2743 28.5421 14.5461 24.29 17.8828 20.9524C21.2194 17.6149 25.471 15.342 30.0996 14.4212C34.7282 13.5003 39.526 13.9729 43.886 15.7792C48.2459 17.5855 51.9723 20.6443 54.5936 24.5687C57.2148 28.4931 58.6133 33.1068 58.6121 37.8262C58.604 44.1484 56.0893 50.2094 51.6194 54.6804C47.1496 59.1514 41.0892 61.6677 34.767 61.6774ZM34.767 15.0397C30.2627 15.0397 25.8596 16.3754 22.1144 18.8779C18.3692 21.3803 15.4502 24.9372 13.7265 29.0986C12.0028 33.26 11.5517 37.8391 12.4305 42.2569C13.3092 46.6746 15.4783 50.7326 18.6633 53.9176C21.8483 57.1026 25.9063 59.2716 30.324 60.1504C34.7418 61.0291 39.3209 60.5781 43.4823 58.8544C47.6437 57.1307 51.2005 54.2117 53.703 50.4665C56.2054 46.7213 57.5411 42.3181 57.5411 37.8139C57.5313 31.7768 55.1288 25.9898 50.8599 21.7209C46.5911 17.4521 40.8041 15.0495 34.767 15.0397ZM34.767 56.0701C31.157 56.0713 27.6276 55.0018 24.6255 52.9969C21.6233 50.9921 19.2832 48.1419 17.9012 44.8068C16.5191 41.4718 16.1572 37.8018 16.8612 34.2611C17.5652 30.7204 19.3034 27.4679 21.8561 24.9153C24.4088 22.3626 27.6612 20.6243 31.2019 19.9203C34.7427 19.2163 38.4127 19.5783 41.7477 20.9603C45.0827 22.3424 47.9329 24.6825 49.9378 27.6847C51.9426 30.6868 53.0121 34.2161 53.0109 37.8262C53.006 42.6633 51.0823 47.3008 47.662 50.7212C44.2417 54.1415 39.6041 56.0652 34.767 56.0701ZM17.5941 37.8262C17.5965 41.2221 18.6058 44.5411 20.4942 47.3636C22.3827 50.186 25.0656 52.3852 28.2037 53.6831C31.3419 54.981 34.7944 55.3193 38.1248 54.6553C41.4552 53.9913 44.514 52.3548 46.9144 49.9526C49.3149 47.5504 50.9492 44.4905 51.6108 41.1596C52.2725 37.8287 51.9316 34.3764 50.6315 31.2392C49.3314 28.102 47.1303 25.4207 44.3065 23.5343C41.4827 21.6478 38.163 20.6409 34.767 20.6409C30.2118 20.6458 25.8448 22.4584 22.625 25.6805C19.4051 28.9027 17.5957 33.271 17.5941 37.8262Z" fill="black"/>
<path d="M52.3646 55.8485H52.3154C52.2927 55.8421 52.2714 55.8313 52.253 55.8167C52.2345 55.8021 52.2191 55.7839 52.2076 55.7633C52.1962 55.7427 52.1889 55.7201 52.1863 55.6967C52.1837 55.6732 52.1857 55.6495 52.1922 55.6269L52.6046 54.1928C52.611 54.1701 52.6218 54.1489 52.6364 54.1304C52.6511 54.1119 52.6692 54.0965 52.6898 54.085C52.7104 54.0736 52.7331 54.0663 52.7565 54.0637C52.7799 54.061 52.8036 54.0631 52.8262 54.0696C52.8709 54.0838 52.9082 54.115 52.9301 54.1565C52.952 54.1979 52.9567 54.2463 52.9432 54.2912L52.5369 55.7254C52.5251 55.7616 52.502 55.7931 52.471 55.8153C52.44 55.8374 52.4027 55.8491 52.3646 55.8485Z" fill="black"/>
<path d="M54.3035 58.366C54.28 58.3629 54.2573 58.3552 54.2367 58.3434C54.2162 58.3315 54.1982 58.3156 54.1839 58.2967C54.1696 58.2778 54.1592 58.2562 54.1533 58.2332C54.1474 58.2102 54.1462 58.1863 54.1496 58.1628C54.3712 56.4886 54.6359 54.7898 54.9375 53.1279C54.9401 53.1036 54.9477 53.0801 54.9597 53.0588C54.9718 53.0376 54.9881 53.019 55.0076 53.0043C55.0272 52.9896 55.0495 52.9791 55.0733 52.9734C55.097 52.9677 55.1217 52.9669 55.1458 52.9711C55.1699 52.9754 55.1928 52.9845 55.2132 52.9979C55.2337 53.0114 55.2511 53.0289 55.2645 53.0494C55.2778 53.0698 55.2868 53.0928 55.2909 53.1169C55.295 53.141 55.2941 53.1657 55.2883 53.1895C54.9867 54.8514 54.7221 56.5379 54.5005 58.2121C54.4943 58.2584 54.4702 58.3005 54.4334 58.3292C54.3966 58.358 54.3499 58.3712 54.3035 58.366Z" fill="black"/>
<path d="M56.8702 60.8034C56.8229 60.8034 56.7775 60.7846 56.744 60.7511C56.7105 60.7176 56.6917 60.6722 56.6917 60.6249C56.6917 59.7878 56.821 58.3844 56.9379 57.1411C57.0056 56.384 57.0672 55.7254 57.0857 55.2945C57.0857 55.2472 57.1044 55.2018 57.1379 55.1683C57.1714 55.1348 57.2168 55.116 57.2641 55.116C57.3115 55.116 57.3569 55.1348 57.3904 55.1683C57.4238 55.2018 57.4426 55.2472 57.4426 55.2945C57.4426 55.7131 57.3626 56.3717 57.2949 57.1411C57.178 58.3721 57.0487 59.7755 57.0487 60.5941C57.0545 60.6202 57.0541 60.6472 57.0477 60.673C57.0412 60.6989 57.0289 60.7229 57.0116 60.7432C56.9943 60.7635 56.9725 60.7795 56.948 60.7899C56.9234 60.8004 56.8968 60.805 56.8702 60.8034Z" fill="black"/>
<path d="M59.48 63.21C59.4337 63.2101 59.3892 63.1921 59.3559 63.1599C59.3226 63.1278 59.3031 63.084 59.3015 63.0377L59.1661 57.0795C59.1675 57.032 59.1866 56.9868 59.2196 56.9526C59.2526 56.9185 59.2972 56.8979 59.3446 56.8948C59.3914 56.8964 59.4359 56.9157 59.4691 56.9488C59.5022 56.982 59.5215 57.0265 59.523 57.0733L59.6585 63.0254C59.6593 63.0488 59.6555 63.0722 59.6473 63.0942C59.6391 63.1162 59.6266 63.1363 59.6106 63.1534C59.5946 63.1706 59.5754 63.1844 59.554 63.1941C59.5327 63.2038 59.5096 63.2092 59.4861 63.21H59.48Z" fill="black"/>
<path d="M61.9605 65.8444C61.9142 65.8444 61.8697 65.8265 61.8364 65.7943C61.8031 65.7622 61.7836 65.7183 61.782 65.6721L61.5481 59.4184C61.5473 59.395 61.5511 59.3716 61.5593 59.3496C61.5675 59.3277 61.58 59.3075 61.596 59.2904C61.612 59.2732 61.6312 59.2594 61.6526 59.2497C61.6739 59.24 61.697 59.2346 61.7204 59.2338C61.7441 59.2321 61.7678 59.2353 61.7902 59.2432C61.8125 59.2511 61.833 59.2635 61.8503 59.2797C61.8677 59.2959 61.8815 59.3154 61.8909 59.3372C61.9003 59.3589 61.9051 59.3824 61.9051 59.4061L62.139 65.6413C62.1398 65.6647 62.136 65.6881 62.1278 65.7101C62.1195 65.7321 62.1071 65.7522 62.0911 65.7693C62.075 65.7865 62.0558 65.8003 62.0345 65.81C62.0131 65.8198 61.9901 65.8252 61.9666 65.826L61.9605 65.8444Z" fill="black"/>
<path d="M64.4903 68.0664C64.444 68.0665 64.3995 68.0485 64.3662 68.0164C64.3329 67.9842 64.3134 67.9404 64.3118 67.8941L63.9979 62.0713C63.9943 62.0259 64.0082 61.9808 64.0369 61.9453C64.0655 61.9098 64.1066 61.8866 64.1517 61.8805C64.1756 61.8778 64.1997 61.8803 64.2225 61.8879C64.2453 61.8954 64.2662 61.9078 64.2838 61.9242C64.3013 61.9405 64.3151 61.9605 64.3242 61.9827C64.3333 62.0049 64.3374 62.0289 64.3364 62.0528L64.6565 67.8756C64.6582 67.9236 64.6411 67.9703 64.6089 68.006C64.5768 68.0416 64.532 68.0633 64.4841 68.0664H64.4903Z" fill="black"/>
<path d="M66.9893 70.1161C66.944 70.1162 66.9003 70.0991 66.8672 70.0683C66.8341 70.0374 66.8139 69.9951 66.8108 69.9499L66.3737 64.281C66.3721 64.2576 66.375 64.234 66.3825 64.2117C66.39 64.1894 66.4018 64.1688 66.4172 64.1511C66.4327 64.1334 66.4514 64.1188 66.4725 64.1084C66.4936 64.0979 66.5165 64.0918 66.5399 64.0902C66.5863 64.0868 66.6322 64.1016 66.6679 64.1315C66.7035 64.1614 66.7261 64.204 66.7308 64.2503L67.1678 69.9253C67.1695 69.9488 67.1664 69.9723 67.159 69.9946C67.1515 70.0169 67.1398 70.0375 67.1243 70.0552C67.1089 70.073 67.0901 70.0875 67.069 70.0979C67.048 70.1084 67.025 70.1146 67.0016 70.1161H66.9893Z" fill="black"/>
<path d="M69.3528 71.9627C69.3092 71.9628 69.2671 71.9463 69.2351 71.9166C69.2031 71.8869 69.1836 71.8462 69.1805 71.8027L68.6696 66.8231C68.6671 66.8 68.6692 66.7766 68.676 66.7543C68.6827 66.7321 68.6939 66.7114 68.7089 66.6935C68.7238 66.6757 68.7422 66.6611 68.763 66.6506C68.7837 66.6401 68.8064 66.6338 68.8296 66.6323C68.876 66.6289 68.9219 66.6437 68.9576 66.6736C68.9932 66.7035 69.0157 66.7461 69.0204 66.7924L69.5313 71.7657C69.5339 71.7884 69.5319 71.8113 69.5256 71.8332C69.5192 71.8551 69.5085 71.8755 69.4942 71.8933C69.4799 71.911 69.4622 71.9257 69.4422 71.9366C69.4221 71.9475 69.4001 71.9542 69.3774 71.9565L69.3528 71.9627Z" fill="black"/>
<path d="M71.6733 71.7288C71.6307 71.7291 71.5894 71.7135 71.5576 71.685C71.5258 71.6566 71.5056 71.6174 71.501 71.5749L71.1378 69.3529C71.1307 69.3064 71.1423 69.259 71.17 69.221C71.1976 69.183 71.2392 69.1574 71.2856 69.1498C71.3087 69.1454 71.3325 69.1458 71.3554 69.151C71.3784 69.1561 71.4001 69.1659 71.4191 69.1797C71.4381 69.1936 71.4541 69.2112 71.4661 69.2314C71.4781 69.2517 71.4857 69.2742 71.4887 69.2975L71.8519 71.5196C71.859 71.566 71.8474 71.6135 71.8198 71.6515C71.7921 71.6895 71.7506 71.7151 71.7041 71.7227L71.6733 71.7288Z" fill="black"/>
<g opacity="0.13">
<path d="M51.2629 43.4643C50.6781 43.9567 50.4073 44.7569 49.9087 45.3416C49.2986 46.1009 48.6429 46.8223 47.9452 47.5021C47.3605 48.0253 46.8004 48.4807 46.2279 48.9177C46.1215 48.9394 46.0195 48.9789 45.9263 49.0347C43.0149 51.1459 40.8237 51.9153 37.1367 52.5924C34.9854 53.0741 32.7512 53.0467 30.6123 52.5124C28.6857 52.063 27.7501 51.5337 25.7374 50.1795C24.2458 49.0484 22.8834 47.7562 21.675 46.3264C20.733 45.0126 20.0039 43.5586 19.5145 42.0178C19.2252 41.2361 19.0037 40.4359 18.7759 39.6357C18.4797 38.8638 18.3294 38.0436 18.3327 37.2168C18.1234 36.6013 17.9265 36.0227 17.748 35.4133C17.5773 35.3323 17.3887 35.2963 17.2002 35.3087C16.9015 37.7089 16.914 40.1377 17.2371 42.5348C17.7603 44.6091 18.4066 46.8435 20.3947 49.0901C21.4161 50.1917 22.5531 51.1802 23.7862 52.0384C25.3648 53.2463 27.1215 54.2014 28.9935 54.8698C30.0373 55.1409 31.1016 55.3262 32.1757 55.4238C33.3369 55.6217 34.5207 55.6507 35.6903 55.5099C36.6009 55.3979 37.4993 55.2022 38.3739 54.9252C40.2309 54.5157 42.0297 53.8768 43.7289 53.0232C44.1542 52.7713 44.5652 52.4959 44.96 52.1984C46.9009 50.9989 48.6764 49.5504 50.2411 47.8898C50.5243 47.2743 50.8012 46.7142 51.0536 46.1172C51.3798 45.2247 51.6691 44.3322 52.0199 43.4397C51.8993 43.3896 51.7693 43.3659 51.6387 43.3701C51.5082 43.3744 51.38 43.4065 51.2629 43.4643Z" fill="black"/>
</g>
<g opacity="0.13">
<path d="M55.0667 51.0721C54.1803 50.8197 53.5833 51.4352 53.1463 52.1123L53.0847 52.1862C52.3092 53.091 52.0938 53.011 50.8135 54.1681C50.536 54.3064 50.2922 54.5039 50.0995 54.7467C49.9221 54.953 49.8072 55.2055 49.7679 55.4747C49.7287 55.7439 49.7668 56.0187 49.8779 56.267C49.7169 56.2696 49.5583 56.3066 49.4129 56.3756C49.2674 56.4447 49.1384 56.544 49.0346 56.6671C48.7921 56.9266 48.5193 57.156 48.2221 57.3504C46.8875 58.2285 45.4788 58.9885 44.012 59.6216C40.4667 60.988 37.9923 61.6651 34.5823 61.4682C29.1227 61.3266 24.5494 59.2461 20.5116 56.4025C19.778 55.8746 19.116 55.2539 18.542 54.5559L18.7081 54.7713C18.1357 54.0881 17.6925 53.1956 16.8616 52.7648C16.6327 52.673 16.3794 52.6626 16.1438 52.7351C15.9081 52.8077 15.7046 52.9589 15.567 53.1635C15.4294 53.368 15.3661 53.6136 15.3878 53.8592C15.4094 54.1048 15.5147 54.3355 15.6859 54.5128C16.4123 55.1283 16.917 56.1809 18.068 57.2088C19.191 58.2101 20.4311 59.072 21.7611 59.7755C22.8392 60.4791 23.9712 61.0965 25.1464 61.622C26.5332 62.2593 27.9754 62.7682 29.455 63.1424C32.1178 63.7494 34.8561 63.9568 37.5799 63.7579C40.7404 63.3285 43.7938 62.3163 46.5849 60.7726C48.0469 60.0606 49.407 59.1559 50.6288 58.0828C50.7396 57.9693 50.8236 57.8325 50.8747 57.6823C50.9258 57.5321 50.9428 57.3725 50.9243 57.2149C51.1277 57.2823 51.3435 57.3039 51.5562 57.2784C51.769 57.2528 51.9736 57.1807 52.1553 57.0672C53.1693 56.4983 54.0522 55.7224 54.7466 54.7898C55.2063 54.3051 55.6185 53.7774 55.9776 53.2141C56.0875 53.018 56.1509 52.7994 56.1631 52.5749C56.1753 52.3505 56.1359 52.1263 56.0479 51.9195C55.96 51.7127 55.8258 51.5288 55.6557 51.3819C55.4856 51.235 55.2841 51.129 55.0667 51.0721Z" fill="black"/>
</g>
<path d="M4.34203 51.1459C4.32065 51.147 4.29927 51.1437 4.27918 51.1363C4.2591 51.1289 4.24071 51.1175 4.22508 51.1029C4.19306 51.0686 4.17523 51.0235 4.17523 50.9767C4.17523 50.9298 4.19306 50.8847 4.22508 50.8505C5.61077 49.2172 7.12573 47.6981 8.75528 46.308C8.78875 46.2745 8.83415 46.2557 8.88147 46.2557C8.92879 46.2557 8.97415 46.2745 9.00762 46.308C9.024 46.324 9.03702 46.3432 9.0459 46.3643C9.05479 46.3855 9.05935 46.4082 9.05935 46.4311C9.05935 46.454 9.05479 46.4767 9.0459 46.4979C9.03702 46.519 9.024 46.5382 9.00762 46.5542C7.37389 47.9284 5.8566 49.4354 4.47127 51.0598C4.45797 51.0833 4.43936 51.1033 4.41691 51.1183C4.39446 51.1332 4.36882 51.1427 4.34203 51.1459Z" fill="black"/>
<path d="M3.70798 56.3409C3.68473 56.3408 3.66175 56.3358 3.64055 56.3263C3.61934 56.3168 3.60038 56.3029 3.58487 56.2855C3.55142 56.2521 3.53265 56.2067 3.53265 56.1594C3.53265 56.112 3.55142 56.0667 3.58487 56.0332C6.10849 53.4665 8.7183 50.9244 11.3342 48.4685C11.3502 48.4483 11.3704 48.4318 11.3933 48.4201C11.4162 48.4084 11.4415 48.4018 11.4672 48.4008C11.4929 48.3997 11.5186 48.4043 11.5424 48.4141C11.5662 48.4239 11.5876 48.4388 11.6051 48.4577C11.6226 48.4765 11.6359 48.499 11.6439 48.5235C11.652 48.5479 11.6546 48.5738 11.6517 48.5994C11.6487 48.625 11.6403 48.6497 11.6269 48.6717C11.6136 48.6937 11.5956 48.7126 11.5743 48.727C8.96451 51.1891 6.36088 53.725 3.84342 56.2855C3.82604 56.3038 3.80496 56.3182 3.78162 56.3278C3.75828 56.3373 3.73319 56.3418 3.70798 56.3409Z" fill="black"/>
<path d="M3.11098 62.496C3.0896 62.4971 3.06822 62.4938 3.04813 62.4864C3.02804 62.479 3.00965 62.4676 2.99403 62.453C2.96058 62.4195 2.94177 62.3741 2.94177 62.3268C2.94177 62.2795 2.96058 62.2341 2.99403 62.2006C5.84387 58.9199 8.87837 55.7254 11.999 52.7032C12.0325 52.6697 12.0779 52.6509 12.1252 52.6509C12.1725 52.6509 12.2179 52.6697 12.2514 52.7032C12.2834 52.7374 12.3012 52.7825 12.3012 52.8294C12.3012 52.8762 12.2834 52.9213 12.2514 52.9555C9.13072 55.9716 6.09623 59.1661 3.26486 62.4345C3.24645 62.4569 3.2227 62.4742 3.19581 62.485C3.16891 62.4957 3.13973 62.4995 3.11098 62.496Z" fill="black"/>
<path d="M9.33386 60.8034C9.29086 60.8041 9.24915 60.7888 9.21691 60.7603C9.18488 60.7261 9.16705 60.681 9.16705 60.6342C9.16705 60.5873 9.18488 60.5422 9.21691 60.508C10.8402 58.5544 12.612 56.729 14.5165 55.0483C14.55 55.0149 14.5954 54.9961 14.6427 54.9961C14.69 54.9961 14.7354 55.0149 14.7689 55.0483C14.8009 55.0825 14.8187 55.1277 14.8187 55.1745C14.8187 55.2214 14.8009 55.2665 14.7689 55.3007C12.8802 56.9708 11.1228 58.7837 9.51234 60.7234C9.49361 60.7527 9.46673 60.7758 9.43503 60.79C9.40332 60.8043 9.36817 60.8089 9.33386 60.8034Z" fill="black"/>
<path d="M15.2243 59.9601C15.1767 59.9599 15.1308 59.9424 15.095 59.9109C15.063 59.8767 15.0452 59.8316 15.0452 59.7847C15.0452 59.7379 15.063 59.6928 15.095 59.6585L17.6679 57.0056C17.7021 56.9736 17.7472 56.9558 17.7941 56.9558C17.8409 56.9558 17.8861 56.9736 17.9203 57.0056C17.9537 57.0391 17.9725 57.0845 17.9725 57.1318C17.9725 57.1792 17.9537 57.2245 17.9203 57.258L15.3413 59.9047C15.3265 59.9213 15.3085 59.9348 15.2884 59.9443C15.2683 59.9538 15.2465 59.9592 15.2243 59.9601Z" fill="black"/>
<path d="M34.0279 47L25.8 35.0181C25.1463 34.0659 24.8779 32.8881 25.0517 31.7348C25.2255 30.5814 25.8278 29.5435 26.7308 28.8414C27.1739 28.5012 27.6787 28.2563 28.2152 28.1212C28.7517 27.9862 29.309 27.9637 29.8541 28.0551C30.3992 28.1465 30.921 28.35 31.3885 28.6535C31.856 28.9569 32.2598 29.3542 32.5759 29.8217L33.9969 31.8977L35.4241 29.8217C35.7402 29.3542 36.144 28.9569 36.6115 28.6535C37.079 28.35 37.6008 28.1465 38.1459 28.0551C38.691 27.9637 39.2483 27.9862 39.7848 28.1212C40.3213 28.2563 40.8261 28.5012 41.2692 28.8414C42.1722 29.5435 42.7745 30.5814 42.9483 31.7348C43.1221 32.8881 42.8537 34.0659 42.2 35.0181L34.0279 47Z" fill="#F35A05"/>
<path d="M34.522 48C34.4361 47.9988 34.3517 47.9768 34.2756 47.9357C34.1994 47.8947 34.1336 47.8358 34.0834 47.7637L25.8729 35.8466C25.1537 34.7778 24.8626 33.4626 25.0607 32.1768C25.2588 30.891 25.9307 29.7343 26.9355 28.9493C27.4307 28.566 27.9956 28.2898 28.5964 28.1373C29.1972 27.9848 29.8216 27.959 30.4322 28.0616C31.0503 28.1619 31.6424 28.3901 32.1731 28.7325C32.7039 29.0748 33.1624 29.5244 33.5212 30.0541L34.4973 31.4847L35.4796 30.0541C35.8384 29.5244 36.2969 29.0748 36.8277 28.7325C37.3585 28.3901 37.9506 28.1619 38.5686 28.0616C39.1792 27.959 39.8036 27.9848 40.4044 28.1373C41.0052 28.2898 41.5701 28.566 42.0653 28.9493C43.0741 29.7378 43.747 30.9007 43.9418 32.1925C44.1366 33.4842 43.8381 34.8037 43.1094 35.8722L34.9421 47.7893C34.8923 47.8551 34.8285 47.9084 34.7557 47.9449C34.6829 47.9814 34.603 48.0003 34.522 48ZM29.7279 29.0834C28.9634 29.0853 28.22 29.3429 27.6089 29.8178C26.8249 30.433 26.3024 31.3386 26.1514 32.344C26.0005 33.3494 26.2328 34.3761 26.7996 35.208L34.522 46.48L42.2507 35.208C42.8174 34.3761 43.0497 33.3494 42.8988 32.344C42.7478 31.3386 42.2253 30.433 41.4414 29.8178C41.062 29.5229 40.6291 29.3099 40.1685 29.1914C39.7079 29.0729 39.2289 29.0514 38.7601 29.1281C38.2823 29.206 37.8247 29.3831 37.4148 29.6487C37.005 29.9143 36.6514 30.263 36.3754 30.6736L34.9545 32.7364C34.9054 32.8096 34.8398 32.8694 34.7634 32.9106C34.687 32.9517 34.602 32.9731 34.5158 32.9727C34.43 32.9715 34.3455 32.9495 34.2694 32.9085C34.1932 32.8674 34.1274 32.8085 34.0772 32.7364L32.6686 30.6736C32.3933 30.2637 32.0407 29.9154 31.632 29.6499C31.2233 29.3843 30.7668 29.2068 30.2901 29.1281C30.0937 29.0992 29.8955 29.0842 29.697 29.0834H29.7279Z" fill="#07040C"/>
</svg>
