<svg width="92" height="85" viewBox="0 0 92 85" fill="none" xmlns="http://www.w3.org/2000/svg">
<path d="M66.2086 0.620483L68.1858 7.01602H74.5813L69.4063 10.9633L71.3835 17.3588L66.2086 13.4044L61.0407 17.3588L63.018 10.9633L57.843 7.01602H64.2385L66.2086 0.620483Z" fill="white"/>
<path d="M71.3835 18.0083C71.2466 18.0094 71.1132 17.9641 71.0052 17.8798L66.2086 14.2181L61.4191 17.8798C61.3145 17.9532 61.1899 17.9926 61.0622 17.9926C60.9344 17.9926 60.8098 17.9532 60.7053 17.8798C60.5915 17.8046 60.5064 17.6933 60.4637 17.5638C60.4209 17.4343 60.4231 17.2942 60.4697 17.166L62.3113 11.1916L57.4861 7.50135C57.3832 7.42233 57.3076 7.31307 57.27 7.1889C57.2324 7.06474 57.2346 6.93191 57.2764 6.80907C57.3181 6.68623 57.3972 6.57955 57.5027 6.504C57.6082 6.42845 57.7347 6.38783 57.8644 6.38784H63.796L65.6375 0.434866C65.6771 0.308767 65.756 0.198595 65.8625 0.120384C65.9691 0.0421731 66.0979 0 66.23 0C66.3622 0 66.4909 0.0421731 66.5975 0.120384C66.704 0.198595 66.7828 0.308767 66.8224 0.434866L68.664 6.38784H74.6027C74.7319 6.3893 74.8573 6.43098 74.9616 6.50708C75.066 6.58318 75.1439 6.68991 75.1848 6.81242C75.2256 6.93493 75.2273 7.06712 75.1895 7.1906C75.1517 7.31408 75.0763 7.4227 74.9739 7.50135L70.1487 11.1916L71.9974 17.166C72.0415 17.2944 72.0424 17.4337 71.9998 17.5626C71.9573 17.6915 71.8738 17.8029 71.7619 17.8798C71.6539 17.9641 71.5205 18.0094 71.3835 18.0083ZM59.6774 7.66552L63.3891 10.5207C63.4896 10.5986 63.5644 10.7048 63.6039 10.8257C63.6433 10.9466 63.6456 11.0766 63.6104 11.1988L62.1828 15.7384L65.8088 12.9618C65.9173 12.8785 66.0503 12.8333 66.1872 12.8333C66.324 12.8333 66.457 12.8785 66.5655 12.9618L70.1915 15.7384L68.7639 11.1988C68.7259 11.0774 68.7261 10.9473 68.7644 10.826C68.8027 10.7048 68.8773 10.5982 68.9781 10.5207L72.6897 7.66552H68.1358C68.0035 7.66548 67.8747 7.62323 67.7682 7.54491C67.6616 7.4666 67.5829 7.35631 67.5434 7.2301L66.1586 2.75467L64.781 7.2301C64.7405 7.35572 64.6615 7.46539 64.5552 7.54355C64.4488 7.62171 64.3205 7.66438 64.1885 7.66552H59.6774Z" fill="black"/>
<path d="M83.4323 10.9918L84.6528 14.9462H88.6072L85.4095 17.3945L86.63 21.3489L83.4323 18.9006L80.2274 21.3489L81.4551 17.3945L78.2502 14.9462H82.2116L83.4323 10.9918Z" fill="white"/>
<path d="M86.6299 21.9698C86.4933 21.9687 86.3606 21.9237 86.2516 21.8413L83.4322 19.6999L80.577 21.8413C80.4729 21.9157 80.3481 21.9557 80.2201 21.9557C80.0921 21.9557 79.9674 21.9157 79.8632 21.8413C79.7501 21.7654 79.665 21.6544 79.6212 21.5254C79.5773 21.3965 79.577 21.2566 79.6205 21.1275L80.7197 17.5586L77.8646 15.3744C77.7556 15.2954 77.6755 15.1827 77.6368 15.0537C77.5981 14.9247 77.603 14.7866 77.6505 14.6606C77.6921 14.5382 77.7708 14.4319 77.8757 14.3564C77.9807 14.2809 78.1065 14.24 78.2358 14.2395H81.7334L82.8255 10.7205C82.8651 10.5944 82.9439 10.4842 83.0504 10.406C83.157 10.3278 83.2857 10.2856 83.4179 10.2856C83.5501 10.2856 83.6788 10.3278 83.7853 10.406C83.8919 10.4842 83.9707 10.5944 84.0103 10.7205L85.0953 14.2395H88.5928C88.7233 14.2385 88.8508 14.2787 88.9571 14.3543C89.0635 14.4299 89.1433 14.5371 89.1852 14.6606C89.2328 14.7866 89.2376 14.9247 89.1989 15.0537C89.1602 15.1827 89.0802 15.2954 88.9712 15.3744L86.116 17.5586L87.208 21.1275C87.2547 21.2556 87.2569 21.3958 87.2141 21.5253C87.1714 21.6548 87.0863 21.7661 86.9725 21.8413C86.8747 21.9192 86.7548 21.9642 86.6299 21.9698ZM83.4322 18.2795C83.569 18.2795 83.7019 18.3247 83.8104 18.408L85.4664 19.6785L84.8169 17.5729C84.7788 17.4515 84.779 17.3214 84.8173 17.2001C84.8556 17.0789 84.9302 16.9723 85.031 16.8948L86.7726 15.5671H84.6313C84.499 15.5671 84.3703 15.5248 84.2638 15.4465C84.1572 15.3682 84.0784 15.2579 84.0389 15.1317L83.4107 13.0903L82.7826 15.1317C82.7431 15.2579 82.6643 15.3682 82.5577 15.4465C82.4511 15.5248 82.3224 15.5671 82.1902 15.5671H80.0488L81.7904 16.8948C81.8913 16.9723 81.9659 17.0789 82.0042 17.2001C82.0425 17.3214 82.0426 17.4515 82.0046 17.5729L81.355 19.6785L83.011 18.408C83.1309 18.3152 83.2808 18.2695 83.4322 18.2795Z" fill="black"/>
<path d="M18.5563 62.7341C17.418 61.1276 16.6073 59.3126 16.1706 57.3927C15.7339 55.4729 15.6797 53.4858 16.0111 51.5449C16.3426 49.6041 17.0531 47.7476 18.1022 46.0815C19.1513 44.4153 20.5183 42.9722 22.1252 41.8345L54.6596 18.7863L46.4368 7.18726L12.9388 30.9207C6.62865 35.3999 2.35389 42.2001 1.05309 49.8283C-0.247721 57.4565 1.53173 65.2891 6.00075 71.6065C10.4789 77.9178 17.2786 82.1939 24.9069 83.4961C32.5351 84.7982 40.3684 83.0199 46.6866 78.5516L80.1774 54.8182L71.9546 43.2192L39.4274 66.2674C36.1893 68.5609 32.1739 69.4769 28.2615 68.8146C24.3492 68.1522 20.859 65.9656 18.5563 62.7341Z" fill="white"/>
<path d="M29.8911 84.5831C28.1881 84.5816 26.4882 84.4384 24.809 84.1549C18.9941 83.1621 13.6041 80.4674 9.32048 76.4116C5.0369 72.3557 2.05203 67.1209 0.743326 61.3688C-0.565382 55.6168 -0.139185 49.6058 1.96801 44.096C4.07521 38.5861 7.76881 33.8247 12.5818 30.4139L46.0726 6.68048C46.2071 6.58613 46.3736 6.54893 46.5354 6.57702C46.6973 6.60511 46.8415 6.69621 46.9363 6.83037L55.1591 18.4294C55.2518 18.565 55.2877 18.7316 55.2591 18.8934C55.247 18.9735 55.2186 19.0504 55.1756 19.1191C55.1327 19.1879 55.076 19.2471 55.0093 19.2931L22.482 42.3412C20.9415 43.432 19.631 44.8156 18.6254 46.413C17.6198 48.0104 16.9388 49.7902 16.6213 51.6509C16.3038 53.5115 16.356 55.4165 16.7749 57.257C17.1939 59.0975 17.9714 60.8373 19.0629 62.3772C21.2652 65.4878 24.611 67.5983 28.3669 68.2459C32.1227 68.8935 35.9821 68.0254 39.0989 65.832L71.6262 42.7767C71.7608 42.6815 71.9275 42.643 72.0902 42.6696C72.1707 42.6833 72.2475 42.7131 72.3162 42.7573C72.3849 42.8015 72.4439 42.859 72.4898 42.9266L80.7127 54.5256C80.8054 54.6612 80.8413 54.8278 80.8126 54.9895C80.7994 55.0693 80.7704 55.1457 80.7276 55.2143C80.6847 55.2829 80.6287 55.3424 80.5628 55.3893L47.0719 79.1227C42.052 82.6849 36.0465 84.5936 29.8911 84.5831ZM46.3082 8.05095L13.3027 31.4274C7.11705 35.8099 2.9257 42.4701 1.65068 49.9429C0.375652 57.4157 2.12141 65.0889 6.50389 71.2746C10.8864 77.4602 17.5466 81.6516 25.0194 82.9266C32.4922 84.2016 40.1654 82.4559 46.351 78.0734L79.3351 54.6969L71.8404 44.1114L39.8127 66.8027C36.4333 69.1929 32.2436 70.1446 28.1633 69.4487C24.083 68.7528 20.4455 66.4662 18.0494 63.091C15.6573 59.7123 14.7045 55.522 15.4005 51.4411C16.0965 47.3602 18.3843 43.7226 21.7611 41.3277L53.7815 18.6364L46.3082 8.05095Z" fill="black"/>
<path d="M46.4439 7.21745L36.5721 14.2122L44.7884 25.8079L54.6602 18.8131L46.4439 7.21745Z" fill="#F35A05"/>
<path d="M44.7807 26.4024C44.6813 26.4022 44.5833 26.3781 44.4951 26.3321C44.4069 26.2861 44.331 26.2197 44.2739 26.1383L36.0582 14.5393C35.9631 14.4056 35.9248 14.2398 35.9516 14.078C35.9783 13.9162 36.0679 13.7715 36.201 13.6756L46.0727 6.68048C46.2072 6.58613 46.3736 6.54893 46.5355 6.57702C46.6973 6.60511 46.8415 6.69621 46.9363 6.83037L55.1591 18.4294C55.2518 18.565 55.2877 18.7316 55.2591 18.8934C55.247 18.9735 55.2186 19.0504 55.1757 19.1191C55.1327 19.1879 55.076 19.2471 55.0093 19.2931L45.1304 26.2882C45.0285 26.3615 44.9063 26.4015 44.7807 26.4024ZM37.4287 14.3323L44.9306 24.9177L53.7815 18.6364L46.2868 8.05095L37.4287 14.3323Z" fill="black"/>
<path d="M71.9961 43.2805L62.1244 50.2753L70.3407 61.8709L80.2124 54.8762L71.9961 43.2805Z" fill="#F35A05"/>
<path d="M70.3343 62.463H70.2272C70.0654 62.433 69.9219 62.3407 69.8274 62.206L61.6118 50.607C61.5167 50.4734 61.4783 50.3076 61.5051 50.1457C61.5318 49.9839 61.6215 49.8393 61.7545 49.7433L71.6262 42.7482C71.7608 42.653 71.9274 42.6146 72.0902 42.6412C72.1706 42.6549 72.2475 42.6847 72.3162 42.7289C72.3849 42.773 72.4439 42.8306 72.4898 42.8981L80.7127 54.4971C80.8052 54.6322 80.8413 54.7981 80.8133 54.9595C80.7853 55.1208 80.6954 55.2648 80.5628 55.3608L70.6912 62.3559C70.5854 62.4261 70.4612 62.4634 70.3343 62.463ZM62.9751 50.3929L70.477 60.9783L79.328 54.697L71.8332 44.1116L62.9751 50.3929Z" fill="black"/>
<path d="M80.9268 42.9909C80.8677 43.0011 80.8074 43.0011 80.7483 42.9909C80.6701 42.9679 80.5971 42.9298 80.5336 42.8786C80.47 42.8274 80.4171 42.7643 80.378 42.6927C80.3389 42.6211 80.3144 42.5425 80.3056 42.4614C80.2969 42.3803 80.3042 42.2982 80.3272 42.22L83.3322 31.97C83.3609 31.8687 83.4155 31.7766 83.4906 31.7027C83.5657 31.6289 83.6587 31.5758 83.7605 31.5489C83.8605 31.5207 83.966 31.5184 84.0671 31.5421C84.1682 31.5658 84.2617 31.6148 84.3387 31.6845L87.5864 34.5896L90.7984 25.5174C90.856 25.3657 90.9707 25.2426 91.1179 25.1744C91.265 25.1062 91.4331 25.0983 91.586 25.1524C91.739 25.2064 91.8647 25.3182 91.9363 25.4638C92.0079 25.6094 92.0196 25.7772 91.969 25.9314L88.45 35.853C88.4143 35.9486 88.3562 36.0342 88.2804 36.1025C88.2046 36.1709 88.1134 36.2199 88.0146 36.2456C87.9167 36.2706 87.8142 36.2713 87.716 36.2476C87.6177 36.224 87.5267 36.1767 87.4508 36.1099L84.2459 33.2548L81.5192 42.534C81.4835 42.6642 81.4064 42.7792 81.2995 42.8617C81.1926 42.9441 81.0618 42.9895 80.9268 42.9909Z" fill="black"/>
<path d="M6.43601 72.8628C6.30379 72.8639 6.17467 72.8228 6.06744 72.7454C5.96022 72.668 5.88052 72.5584 5.8399 72.4326C5.79928 72.3067 5.79989 72.1712 5.84164 72.0457C5.88339 71.9203 5.9641 71.8114 6.07202 71.735L18.6132 62.7984C18.7478 62.7154 18.9091 62.6868 19.064 62.7186C19.2189 62.7504 19.3559 62.8401 19.447 62.9694C19.538 63.0987 19.5763 63.2579 19.554 63.4145C19.5317 63.571 19.4505 63.7132 19.327 63.812L6.7858 72.7414C6.68449 72.8169 6.56231 72.8593 6.43601 72.8628Z" fill="black"/>
<path d="M3.11694 60.2217H3.03843C2.98704 60.201 2.94565 60.1611 2.92303 60.1105C2.9004 60.0599 2.89826 60.0026 2.91706 59.9504L13.1813 33.0692C13.2029 33.0205 13.2423 32.982 13.2916 32.9617C13.3408 32.9413 13.396 32.9408 13.4456 32.9601C13.4953 32.9794 13.5356 33.0171 13.5581 33.0653C13.5807 33.1136 13.5838 33.1687 13.5668 33.2191L3.30963 60.1217C3.28933 60.1541 3.26078 60.1804 3.2269 60.1979C3.19302 60.2155 3.15505 60.2237 3.11694 60.2217Z" fill="black"/>
<path d="M4.34467 64.59H4.27331C4.22192 64.5693 4.18058 64.5294 4.15795 64.4788C4.13532 64.4283 4.13318 64.3709 4.15198 64.3188L17.1429 30.2854C17.1636 30.234 17.2035 30.1927 17.254 30.17C17.3046 30.1474 17.362 30.1453 17.4141 30.1641C17.4395 30.1743 17.4626 30.1894 17.4822 30.2086C17.5017 30.2278 17.5172 30.2506 17.5278 30.2759C17.5384 30.3011 17.544 30.3282 17.5441 30.3555C17.5441 30.3829 17.5388 30.41 17.5283 30.4353L4.53741 64.4686C4.52146 64.5061 4.49448 64.5378 4.46004 64.5595C4.4256 64.5811 4.38533 64.5918 4.34467 64.59Z" fill="black"/>
<path d="M6.20759 67.9734H6.13623C6.08484 67.9526 6.04349 67.9128 6.02087 67.8622C5.99824 67.8116 5.9961 67.7542 6.0149 67.7021L21.4041 27.3803C21.4249 27.3289 21.4647 27.2876 21.5153 27.2649C21.5659 27.2423 21.6232 27.2402 21.6754 27.259C21.7008 27.2692 21.7239 27.2843 21.7434 27.3035C21.7629 27.3227 21.7785 27.3455 21.7891 27.3708C21.7997 27.396 21.8052 27.4231 21.8053 27.4504C21.8054 27.4778 21.8 27.5049 21.7896 27.5302L6.40033 67.852C6.38358 67.8889 6.35642 67.92 6.32217 67.9416C6.28791 67.9631 6.24806 67.9742 6.20759 67.9734Z" fill="black"/>
<path d="M9.33393 67.9733H9.26257C9.21118 67.9526 9.16984 67.9128 9.14721 67.8622C9.12458 67.8116 9.12244 67.7542 9.14124 67.7021L13.7094 55.9531C13.7302 55.9018 13.77 55.8604 13.8206 55.8378C13.8712 55.8151 13.9286 55.813 13.9807 55.8318C14.0061 55.842 14.0292 55.8571 14.0487 55.8763C14.0683 55.8955 14.0838 55.9184 14.0944 55.9436C14.105 55.9688 14.1105 55.9959 14.1106 56.0233C14.1107 56.0506 14.1054 56.0777 14.0949 56.103L9.52667 67.852C9.51072 67.8894 9.48373 67.9211 9.4493 67.9428C9.41486 67.9645 9.37459 67.9751 9.33393 67.9733Z" fill="black"/>
<path d="M13.367 65.1182C13.3412 65.1248 13.3142 65.1248 13.2885 65.1182C13.2633 65.1088 13.2404 65.0943 13.2209 65.0758C13.2014 65.0573 13.1859 65.0351 13.1752 65.0104C13.1646 64.9858 13.159 64.9592 13.1588 64.9323C13.1586 64.9055 13.1639 64.8789 13.1742 64.8541L14.7089 60.8997C14.7296 60.8483 14.7695 60.807 14.82 60.7844C14.8706 60.7617 14.928 60.7596 14.9801 60.7784C15.0055 60.7886 15.0287 60.8037 15.0482 60.8229C15.0677 60.8421 15.0832 60.8649 15.0938 60.8902C15.1045 60.9154 15.11 60.9425 15.1101 60.9698C15.1101 60.9972 15.1048 61.0243 15.0943 61.0496L13.5597 65.004C13.5419 65.0395 13.5143 65.0692 13.4801 65.0894C13.4459 65.1097 13.4067 65.1197 13.367 65.1182Z" fill="black"/>
<path d="M3.017 52.6341H2.93849C2.8884 52.612 2.84864 52.5716 2.8274 52.5212C2.80616 52.4707 2.80503 52.4141 2.82426 52.3628L8.05633 38.651C8.06582 38.625 8.08044 38.6011 8.09933 38.5808C8.11821 38.5606 8.14099 38.5443 8.16629 38.533C8.19158 38.5216 8.21887 38.5155 8.24658 38.5149C8.27429 38.5144 8.30183 38.5194 8.32757 38.5297C8.37714 38.5503 8.41674 38.5893 8.43805 38.6386C8.45936 38.6879 8.46068 38.7435 8.44176 38.7938L3.20973 52.5127C3.19378 52.5502 3.16675 52.5819 3.13231 52.6035C3.09788 52.6252 3.05765 52.6359 3.017 52.6341Z" fill="black"/>
<path d="M19.9552 41.0921H19.891C19.8654 41.0841 19.8417 41.071 19.8213 41.0536C19.8009 41.0362 19.7842 41.0149 19.7722 40.9909C19.7603 40.9669 19.7532 40.9408 19.7516 40.914C19.7499 40.8873 19.7536 40.8605 19.7625 40.8352C21.5969 35.1749 23.6169 29.4931 25.744 23.9327C25.763 23.8806 25.8018 23.8382 25.852 23.8148C25.9022 23.7914 25.9596 23.7889 26.0117 23.8078C26.0638 23.8267 26.1062 23.8656 26.1296 23.9158C26.153 23.966 26.1555 24.0234 26.1366 24.0755C23.9952 29.6359 21.9895 35.3105 20.1551 40.9637C20.139 41.003 20.1111 41.0364 20.0754 41.0594C20.0396 41.0824 19.9977 41.0938 19.9552 41.0921Z" fill="black"/>
<path d="M24.1737 38.1799H24.1094C24.0838 38.1718 24.0602 38.1587 24.0398 38.1413C24.0194 38.1239 24.0027 38.1026 23.9907 38.0786C23.9787 38.0547 23.9717 38.0285 23.97 38.0018C23.9683 37.975 23.972 37.9482 23.9809 37.9229L29.4628 21.4487C29.4808 21.3964 29.5183 21.353 29.5675 21.3277C29.6168 21.3024 29.6739 21.2972 29.7269 21.3131C29.7527 21.3219 29.7766 21.3358 29.797 21.3539C29.8175 21.3719 29.8342 21.3939 29.8461 21.4184C29.858 21.443 29.865 21.4696 29.8666 21.4969C29.8682 21.5241 29.8644 21.5514 29.8554 21.5772L24.3735 38.0514C24.3566 38.0901 24.3286 38.123 24.293 38.1459C24.2575 38.1688 24.2159 38.1806 24.1737 38.1799Z" fill="black"/>
<path d="M28.1638 35.339H28.0995C28.0737 35.3302 28.0499 35.3163 28.0294 35.2983C28.0089 35.2802 27.9923 35.2582 27.9803 35.2337C27.9684 35.2091 27.9614 35.1825 27.9598 35.1552C27.9582 35.128 27.9621 35.1007 27.9711 35.0749L33.6028 18.4009C33.6109 18.3753 33.624 18.3516 33.6414 18.3312C33.6588 18.3108 33.6801 18.2941 33.7041 18.2821C33.728 18.2702 33.7542 18.2631 33.7809 18.2614C33.8077 18.2598 33.8345 18.2635 33.8598 18.2724C33.8863 18.2805 33.9108 18.2938 33.9321 18.3116C33.9533 18.3293 33.9708 18.3511 33.9834 18.3758C33.996 18.4004 34.0036 18.4273 34.0057 18.4549C34.0078 18.4825 34.0043 18.5103 33.9954 18.5365L28.3636 35.2105C28.3467 35.2493 28.3187 35.2822 28.2832 35.305C28.2476 35.3279 28.206 35.3397 28.1638 35.339Z" fill="black"/>
<path d="M32.4036 32.3483H32.3465C32.3202 32.3409 32.2956 32.3284 32.2741 32.3114C32.2527 32.2945 32.2348 32.2734 32.2215 32.2495C32.2083 32.2257 32.1999 32.1994 32.1968 32.1722C32.1937 32.1451 32.1961 32.1176 32.2037 32.0913C33.6313 27.5731 35.1588 23.0477 36.8433 18.6222C36.8535 18.5968 36.8686 18.5736 36.8878 18.5541C36.907 18.5346 36.9299 18.5191 36.9551 18.5085C36.9803 18.4978 37.0074 18.4923 37.0348 18.4922C37.0622 18.4922 37.0893 18.4975 37.1146 18.508C37.1397 18.5174 37.1627 18.5318 37.1821 18.5503C37.2016 18.5689 37.2171 18.5911 37.2278 18.6158C37.2384 18.6404 37.244 18.667 37.2442 18.6938C37.2444 18.7207 37.2391 18.7473 37.2288 18.7721C35.5514 23.1833 33.9953 27.7087 32.6034 32.2127C32.5876 32.2528 32.5601 32.2871 32.5245 32.3113C32.4888 32.3355 32.4467 32.3484 32.4036 32.3483Z" fill="black"/>
<path d="M36.7006 29.5716H36.6435C36.5917 29.5552 36.5484 29.519 36.523 29.4709C36.4976 29.4228 36.4922 29.3667 36.5079 29.3146C37.2645 26.8164 38.0925 24.3181 38.9704 21.8341C38.9894 21.7821 39.0282 21.7397 39.0784 21.7162C39.1286 21.6928 39.186 21.6903 39.2381 21.7092C39.2902 21.7282 39.3326 21.767 39.356 21.8172C39.3794 21.8674 39.3819 21.9248 39.363 21.9769C38.4851 24.4323 37.6571 26.9377 36.9004 29.436C36.8855 29.4767 36.8582 29.5116 36.8224 29.536C36.7865 29.5603 36.7439 29.5728 36.7006 29.5716Z" fill="black"/>
<path d="M40.2125 27.0163H40.134C40.0826 26.9956 40.0412 26.9558 40.0186 26.9052C39.996 26.8546 39.9938 26.7972 40.0126 26.7451L40.7978 24.6537C40.8209 24.6087 40.8597 24.5737 40.9069 24.5553C40.9541 24.537 41.0064 24.5366 41.0538 24.5541C41.1013 24.5717 41.1407 24.6061 41.1645 24.6507C41.1884 24.6954 41.195 24.7472 41.1832 24.7965L40.3981 26.895C40.3826 26.9313 40.3567 26.9622 40.3237 26.9838C40.2906 27.0053 40.2519 27.0167 40.2125 27.0163Z" fill="black"/>
<g opacity="0.13">
<path d="M78.9067 56.1459C79.1936 56.064 79.4538 55.908 79.6612 55.6936C79.8686 55.4792 80.0159 55.2139 80.0882 54.9245C80.1606 54.6351 80.1554 54.3318 80.0733 54.045C79.9913 53.7582 79.835 53.4981 79.6205 53.2908C79.4224 53.1038 79.1834 52.9657 78.9224 52.8874C78.6615 52.8092 78.3859 52.793 78.1176 52.8402C77.8493 52.8873 77.5957 52.9965 77.377 53.159C77.1584 53.3215 76.9807 53.5328 76.8582 53.7762C76.2586 54.2544 76.1444 54.49 75.8447 54.6541C74.1316 55.8818 72.3257 56.9668 70.5769 58.1374C65.8374 61.2638 61.1049 64.6614 58.2426 66.8599C53.9599 70.0719 50.0056 73.234 44.645 76.2961C40.9904 78.4375 35.2159 80.4575 31.9753 80.8144C31.4674 80.8924 30.9545 80.9329 30.4407 80.9358C29.0131 81.0071 27.5855 80.8929 26.1579 80.8216C24.9374 80.7573 23.7239 80.6502 22.5034 80.6502C22.0967 80.6029 21.6846 80.6468 21.2971 80.7787C20.992 80.9152 20.7426 81.1514 20.5898 81.4486C20.4371 81.7457 20.39 82.0861 20.4565 82.4135C20.523 82.741 20.699 83.036 20.9556 83.2501C21.2122 83.4641 21.534 83.5844 21.8681 83.591C25.2514 83.5554 28.6062 84.1264 31.9825 84.1549C34.5574 83.9565 37.0871 83.3668 39.4844 82.4062C46.4937 79.9864 52.461 75.4753 58.2355 70.9499C61.2405 68.5801 68.8781 63.3052 71.9331 60.9569C73.9411 59.3624 76.0305 57.8734 78.1929 56.4957C78.3286 56.4243 78.4571 56.3458 78.5927 56.2816C78.7283 56.2173 78.6641 56.2816 78.6284 56.2816H78.5927C78.6784 56.2459 78.7925 56.203 78.9067 56.1459Z" fill="black"/>
</g>
</svg>
