<svg width="96" height="70" viewBox="0 0 96 70" fill="none" xmlns="http://www.w3.org/2000/svg">
<path d="M0.609268 69.0176L95.3976 69.0176L95.3976 3.39271L0.609268 3.39271L0.609268 69.0176Z" fill="white"/>
<path d="M95.3976 69.6199H0.602377C0.5236 69.6208 0.445358 69.6061 0.372313 69.5765C0.299267 69.547 0.232845 69.5033 0.176817 69.4479C0.120788 69.3925 0.0763357 69.3266 0.0459791 69.2539C0.0156226 69.1812 -5.32484e-06 69.1032 1.36084e-09 69.0244V3.39956C1.36084e-09 3.2398 0.0634259 3.08658 0.176394 2.97362C0.289362 2.86065 0.442616 2.79718 0.602377 2.79718H95.3976C95.5574 2.79718 95.7106 2.86065 95.8236 2.97362C95.9366 3.08658 96 3.2398 96 3.39956V69.0244C96 69.1032 95.9844 69.1812 95.954 69.2539C95.9237 69.3266 95.8792 69.3925 95.8232 69.4479C95.7672 69.5033 95.7007 69.547 95.6277 69.5765C95.5546 69.6061 95.4764 69.6208 95.3976 69.6199ZM1.23239 68.4151H94.823V4.02272H1.20475L1.23239 68.4151Z" fill="black"/>
<path d="M0.609268 9.25726L95.3976 9.25726V0.59545L0.609268 0.59545V9.25726Z" fill="#F35A05"/>
<path d="M95.3976 9.85965H0.602377C0.442616 9.85965 0.289362 9.79619 0.176394 9.68322C0.0634259 9.57025 0 9.41703 0 9.25727V0.602377C0 0.442616 0.0634259 0.289394 0.176394 0.176426C0.289362 0.0634576 0.442616 0 0.602377 0H95.3976C95.5574 0 95.7106 0.0634576 95.8236 0.176426C95.9366 0.289394 96 0.442616 96 0.602377V9.25727C96 9.41703 95.9366 9.57025 95.8236 9.68322C95.7106 9.79619 95.5574 9.85965 95.3976 9.85965ZM1.23239 8.65489H94.823V1.20475H1.20475L1.23239 8.65489Z" fill="black"/>
<path d="M69.163 5.53221H64.1639C64.0041 5.53221 63.8509 5.46875 63.738 5.35578C63.625 5.24281 63.5615 5.08959 63.5615 4.92983C63.5615 4.77007 63.625 4.61685 63.738 4.50388C63.8509 4.39091 64.0041 4.32745 64.1639 4.32745H69.163C69.3228 4.32745 69.4759 4.39091 69.5889 4.50388C69.7019 4.61685 69.7654 4.77007 69.7654 4.92983C69.7654 5.08959 69.7019 5.24281 69.5889 5.35578C69.4759 5.46875 69.3228 5.53221 69.163 5.53221Z" fill="black"/>
<path d="M79.3064 5.53221H74.3143C74.1546 5.53221 74.0013 5.46875 73.8883 5.35578C73.7754 5.24281 73.7119 5.08959 73.7119 4.92983C73.7119 4.77007 73.7754 4.61685 73.8883 4.50388C74.0013 4.39091 74.1546 4.32745 74.3143 4.32745H79.3134C79.4731 4.32745 79.6264 4.39091 79.7394 4.50388C79.8523 4.61685 79.9157 4.77007 79.9157 4.92983C79.9157 5.08959 79.8523 5.24281 79.7394 5.35578C79.6264 5.46875 79.4731 5.53221 79.3134 5.53221H79.3064Z" fill="black"/>
<path d="M89.4431 5.53221H84.4441C84.2843 5.53221 84.131 5.46875 84.0181 5.35578C83.9051 5.24281 83.8417 5.08959 83.8417 4.92983C83.8417 4.77007 83.9051 4.61685 84.0181 4.50388C84.131 4.39091 84.2843 4.32745 84.4441 4.32745H89.4431C89.6029 4.32745 89.7561 4.39091 89.8691 4.50388C89.982 4.61685 90.0455 4.77007 90.0455 4.92983C90.0455 5.08959 89.982 5.24281 89.8691 5.35578C89.7561 5.46875 89.6029 5.53221 89.4431 5.53221Z" fill="black"/>
<path d="M16.4374 55.9591L11.9714 55.8068C11.8228 55.8037 11.6808 55.7451 11.5731 55.6426C11.4655 55.5401 11.4002 55.4011 11.3898 55.2528C11.3206 54.3112 11.2929 53.4942 11.2929 52.7464C11.2971 47.4792 12.4338 42.2746 14.6259 37.4853C16.8181 32.696 20.0144 28.434 23.9982 24.9884C24.0577 24.9365 24.1269 24.8969 24.2018 24.8719C24.2767 24.847 24.3557 24.8371 24.4345 24.843C24.5144 24.8464 24.5928 24.8666 24.6644 24.9024C24.736 24.9382 24.7993 24.9888 24.85 25.0507L27.6195 28.2427C27.9449 28.6166 28.2703 28.9904 28.5888 29.3713L29.1774 30.0636C29.2803 30.1843 29.3314 30.3407 29.3197 30.4988C29.3081 30.657 29.2345 30.8041 29.115 30.9084C25.9788 33.6195 23.4623 36.9733 21.7361 40.7424C20.0098 44.5115 19.1142 48.6077 19.11 52.7533C19.11 53.5357 19.1515 54.3735 19.2277 55.239C19.2343 55.3215 19.2242 55.4045 19.1981 55.483C19.1719 55.5615 19.1301 55.634 19.0754 55.696C19.0185 55.7572 18.95 55.8064 18.8739 55.8409C18.7979 55.8754 18.7157 55.8943 18.6322 55.8968C18.0021 55.8968 17.3236 55.8968 16.4927 55.966L16.4374 55.9591ZM12.5323 54.6228L16.4305 54.7543L17.9467 54.6989C17.8983 54.0066 17.8775 53.3695 17.8775 52.7464C17.8809 48.5293 18.7701 44.36 20.4877 40.5086C22.2053 36.6571 24.7129 33.2095 27.848 30.3891L27.6472 30.1537L26.6847 29.032L24.3168 26.297C20.5944 29.6253 17.6159 33.7013 15.5757 38.2589C13.5355 42.8164 12.4795 47.753 12.4768 52.7464C12.4768 53.3211 12.4907 53.9373 12.5323 54.6228Z" fill="black"/>
<path d="M63.7277 28.3949C63.615 28.3964 63.5044 28.3651 63.4092 28.3049C58.9656 25.4888 53.8355 23.9438 48.5758 23.8376C43.316 23.7314 38.1277 25.0681 33.5741 27.7025C33.4463 27.7769 33.2954 27.8011 33.1508 27.7704C33.0062 27.7396 32.8782 27.6562 32.7917 27.5363C31.3307 25.5492 30.0982 23.7559 29.0181 22.0526C28.9736 21.9863 28.9437 21.9112 28.9306 21.8324C28.9175 21.7535 28.9213 21.6728 28.9419 21.5956C28.9598 21.5167 28.9935 21.4422 29.0412 21.3767C29.0888 21.3112 29.1493 21.2561 29.2189 21.2148C35.2509 17.6013 42.1966 15.8029 49.2244 16.035C56.2521 16.267 63.064 18.5198 68.8444 22.5234C68.9175 22.5734 68.9785 22.6391 69.0229 22.7156C69.0674 22.7921 69.0943 22.8775 69.1016 22.9658C69.1089 23.054 69.0964 23.1427 69.0651 23.2255C69.0338 23.3082 68.9844 23.383 68.9206 23.4443C67.2519 25.0922 65.5902 26.7747 64.1569 28.2149C64.1014 28.2725 64.0347 28.3182 63.9608 28.3492C63.887 28.3801 63.8077 28.3957 63.7277 28.3949ZM48.0035 22.6273C53.5238 22.6227 58.9375 24.1469 63.6446 27.0309C64.8493 25.8123 66.1926 24.4552 67.5635 23.105C62.0851 19.4756 55.704 17.4436 49.1356 17.237C42.5672 17.0303 36.071 18.657 30.3752 21.9349C31.2823 23.3197 32.2931 24.8014 33.4494 26.387C37.9038 23.9207 42.9119 22.627 48.0035 22.6273Z" fill="black"/>
<path d="M73.6219 27.3217C71.9186 28.7388 70.2477 30.1928 68.609 31.6838C71.4236 34.4224 73.6611 37.6971 75.1892 41.3147C76.7173 44.9322 77.5051 48.8193 77.5062 52.7463C77.5062 53.5564 77.4646 54.3735 77.3885 55.2182C78.704 55.2182 80.0196 55.2597 81.3352 55.2943C82.2214 55.2943 83.1146 55.3359 84.0078 55.3774C84.077 54.4911 84.1117 53.6187 84.1117 52.7463C84.1174 43.2173 80.3452 34.0745 73.6219 27.3217Z" fill="#F35A05"/>
<path d="M84.5755 56.0076H83.994C83.3847 56.0076 82.7753 55.966 82.166 55.9522H81.3352C80.0958 55.9176 78.8079 55.8898 77.3955 55.876H76.7446L76.8069 55.2321C76.8831 54.3804 76.9177 53.5911 76.9177 52.8087C76.9235 48.9612 76.1553 45.1518 74.6589 41.6071C73.1626 38.0625 70.9686 34.855 68.2075 32.1755L67.7505 31.7323L68.2213 31.303C69.8345 29.8421 71.524 28.3673 73.248 26.9271L73.6704 26.5671L74.0582 26.9617C80.8817 33.8072 84.7093 43.081 84.7002 52.7464C84.7002 53.605 84.7002 54.4774 84.5963 55.4259L84.5755 56.0076ZM78.0533 54.6228C79.2234 54.6228 80.3104 54.6643 81.3698 54.692H82.1938H83.4608C83.5024 53.9996 83.5232 53.3072 83.5232 52.6841C83.5333 43.5233 79.983 34.7171 73.622 28.125C72.2372 29.302 70.8524 30.4929 69.5299 31.6839C75.0651 37.287 78.1633 44.8495 78.1502 52.7256C78.1225 53.3626 78.1017 53.9788 78.0533 54.6228Z" fill="black"/>
<path d="M46.9787 52.5801C46.7456 52.5847 46.5129 52.5591 46.2863 52.504C45.8839 52.3961 45.5093 52.2031 45.188 51.9379C44.8667 51.6727 44.606 51.3415 44.4238 50.9669C43.2467 48.8412 44.7354 47.0479 45.684 46.404L45.7809 46.3486C45.9263 46.2863 60.5912 39.8609 64.4755 38.1022C64.6013 38.0441 64.7433 38.0317 64.8773 38.067C65.0113 38.1024 65.1287 38.1834 65.2094 38.2961C65.2914 38.4083 65.3321 38.5455 65.3245 38.6843C65.3169 38.8231 65.2616 38.9551 65.1679 39.0577L65.1124 39.1131L65.0432 39.1824L49.0074 51.9293H48.9659C48.3716 52.3158 47.6865 52.5402 46.9787 52.5801ZM46.3556 47.4287C46.044 47.6572 44.6385 48.8135 45.5109 50.3852C45.6151 50.611 45.7657 50.8122 45.9531 50.9756C46.1404 51.1391 46.3601 51.2612 46.5979 51.3338C47.2024 51.4214 47.8183 51.2914 48.3358 50.9669L60.7435 41.1003C55.1974 43.5583 47.1172 47.0895 46.3556 47.4287Z" fill="black"/>
<path d="M46.9302 21.9695C46.8989 21.9696 46.8682 21.962 46.8404 21.9476C46.8127 21.9331 46.7888 21.9121 46.7709 21.8864C45.9055 20.7371 45.0539 19.56 44.2299 18.4245C44.2001 18.3812 44.1885 18.3279 44.1976 18.2761C44.2066 18.2243 44.2356 18.1782 44.2784 18.1475C44.3228 18.1174 44.3771 18.1056 44.4301 18.1146C44.483 18.1236 44.5304 18.1528 44.5623 18.196C45.3793 19.3523 46.2309 20.5224 47.0895 21.658C47.1055 21.6787 47.1171 21.7024 47.1237 21.7277C47.1303 21.753 47.1317 21.7794 47.1278 21.8053C47.1239 21.8312 47.1149 21.856 47.1012 21.8783C47.0874 21.9006 47.0693 21.9198 47.0479 21.9349C47.0137 21.9594 46.9722 21.9716 46.9302 21.9695Z" fill="black"/>
<path d="M49.9837 22.0734C49.9514 22.0734 49.9196 22.0659 49.8908 22.0515C49.8619 22.0371 49.8369 22.0161 49.8175 21.9903L47.1518 18.106C47.1215 18.0619 47.11 18.0076 47.1197 17.9551C47.1294 17.9025 47.1596 17.8559 47.2037 17.8256C47.2478 17.7953 47.3021 17.7837 47.3547 17.7935C47.4073 17.8032 47.4539 17.8335 47.4842 17.8775L50.1498 21.7618C50.1789 21.806 50.1895 21.8598 50.1791 21.9117C50.1687 21.9635 50.1383 22.0092 50.0945 22.0388C50.0629 22.0633 50.0236 22.0756 49.9837 22.0734Z" fill="black"/>
<path d="M53.5426 22.5858C53.5113 22.5858 53.4805 22.5783 53.4528 22.5638C53.425 22.5493 53.4012 22.5284 53.3834 22.5027C52.3102 21.0764 51.2023 19.65 50.0737 18.2653C50.0397 18.2239 50.0236 18.1708 50.0288 18.1176C50.0339 18.0644 50.0601 18.0154 50.1014 17.9814C50.1428 17.9474 50.1959 17.9312 50.2491 17.9364C50.3023 17.9416 50.3513 17.9678 50.3853 18.0091C51.5139 19.3939 52.6286 20.834 53.7018 22.2604C53.718 22.2816 53.7298 22.3059 53.7365 22.3318C53.7432 22.3576 53.7446 22.3846 53.7407 22.411C53.7369 22.4375 53.7277 22.4629 53.7139 22.4858C53.7001 22.5086 53.6819 22.5285 53.6603 22.5442C53.627 22.5712 53.5854 22.5858 53.5426 22.5858Z" fill="black"/>
<path d="M57.8493 23.7144C57.8187 23.7141 57.7887 23.7072 57.7612 23.694C57.7337 23.6809 57.7093 23.6618 57.69 23.6382L53.9511 18.7914C53.929 18.7719 53.9116 18.7477 53.8999 18.7206C53.8882 18.6935 53.8826 18.6642 53.8836 18.6347C53.8845 18.6052 53.8919 18.5763 53.9053 18.55C53.9187 18.5237 53.9376 18.5007 53.9609 18.4826C53.9842 18.4645 54.0112 18.4517 54.04 18.4452C54.0688 18.4387 54.0986 18.4387 54.1274 18.445C54.1562 18.4514 54.1833 18.464 54.2067 18.482C54.2301 18.5 54.2492 18.5229 54.2627 18.5491L58.0085 23.3959C58.0431 23.4351 58.0622 23.4855 58.0622 23.5378C58.0622 23.5901 58.0431 23.6405 58.0085 23.6797C57.9617 23.7111 57.9048 23.7235 57.8493 23.7144Z" fill="black"/>
<path d="M61.9067 25.2239C61.8762 25.2232 61.8463 25.2161 61.8188 25.2029C61.7914 25.1898 61.767 25.171 61.7474 25.1477L57.6969 19.8163C57.6785 19.7983 57.6639 19.7767 57.6539 19.7529C57.6439 19.7292 57.6388 19.7036 57.6388 19.6778C57.6388 19.652 57.6439 19.6265 57.6539 19.6027C57.6639 19.5789 57.6785 19.5574 57.6969 19.5394C57.7346 19.5017 57.7856 19.4806 57.8389 19.4806C57.8921 19.4806 57.9432 19.5017 57.9808 19.5394L62.0521 24.8708C62.0736 24.9005 62.0866 24.9356 62.0896 24.9722C62.0925 25.0087 62.0854 25.0455 62.069 25.0783C62.0526 25.1111 62.0275 25.1388 61.9964 25.1584C61.9654 25.178 61.9296 25.1886 61.8929 25.1893L61.9067 25.2239Z" fill="black"/>
<path d="M64.7109 24.9053C64.6786 24.9053 64.6468 24.8978 64.618 24.8834C64.5891 24.869 64.5641 24.848 64.5447 24.8222L62.1975 21.5541C62.1673 21.5097 62.1555 21.4554 62.1645 21.4024C62.1736 21.3495 62.2027 21.3021 62.2459 21.2703C62.2892 21.2405 62.3425 21.2289 62.3943 21.2379C62.4461 21.247 62.4923 21.276 62.5229 21.3187L64.8701 24.5868C64.8863 24.6081 64.8981 24.6323 64.9048 24.6582C64.9114 24.6841 64.9129 24.711 64.909 24.7375C64.9051 24.7639 64.896 24.7893 64.8822 24.8122C64.8684 24.8351 64.8502 24.8549 64.8286 24.8707C64.7946 24.8956 64.7529 24.9079 64.7109 24.9053Z" fill="black"/>
<path d="M43.6413 22.3712C43.6108 22.371 43.5808 22.364 43.5533 22.3509C43.5257 22.3377 43.5014 22.3186 43.4821 22.295C42.6166 21.2357 41.7858 20.1209 41.0103 18.9854C40.9805 18.9421 40.9689 18.8888 40.9779 18.837C40.987 18.7852 41.016 18.7391 41.0587 18.7084C41.0808 18.6929 41.1058 18.6821 41.1323 18.6764C41.1587 18.6708 41.186 18.6706 41.2125 18.6758C41.239 18.6809 41.2641 18.6914 41.2865 18.7065C41.3089 18.7217 41.328 18.7412 41.3426 18.7638C42.1112 19.8855 42.9351 20.9864 43.7937 22.0458C43.8293 22.0831 43.8491 22.1327 43.8491 22.1843C43.8491 22.2358 43.8293 22.2854 43.7937 22.3227C43.7735 22.3416 43.7493 22.3557 43.723 22.3641C43.6966 22.3724 43.6687 22.3749 43.6413 22.3712Z" fill="black"/>
<path d="M40.5187 22.8628C40.4893 22.8621 40.4604 22.8548 40.4341 22.8417C40.4078 22.8285 40.3847 22.8097 40.3664 22.7867L37.8115 19.7678C37.7766 19.7274 37.7592 19.6748 37.7631 19.6216C37.767 19.5683 37.7919 19.5188 37.8323 19.4839C37.8727 19.4491 37.9253 19.4316 37.9786 19.4355C38.0318 19.4394 38.0813 19.4643 38.1162 19.5047L40.6711 22.5305C40.7088 22.5681 40.7299 22.6192 40.7299 22.6724C40.7299 22.7256 40.7088 22.7767 40.6711 22.8143C40.6276 22.8478 40.5736 22.8649 40.5187 22.8628Z" fill="black"/>
<path d="M37.5276 23.9706C37.5019 23.9713 37.4764 23.9668 37.4526 23.9573C37.4288 23.9477 37.4072 23.9334 37.3891 23.9152C36.3713 22.9666 35.3673 21.9557 34.4187 20.931C34.382 20.8915 34.3624 20.839 34.3644 20.7851C34.3663 20.7313 34.3897 20.6804 34.4291 20.6436C34.4686 20.6069 34.521 20.5874 34.5749 20.5893C34.6288 20.5913 34.6798 20.6145 34.7165 20.654C35.6582 21.6787 36.6482 22.6758 37.666 23.6244C37.7036 23.662 37.7248 23.7131 37.7248 23.7663C37.7248 23.8195 37.7036 23.8706 37.666 23.9083C37.6486 23.9278 37.6272 23.9434 37.6034 23.9541C37.5795 23.9648 37.5537 23.9704 37.5276 23.9706Z" fill="black"/>
<path d="M34.7996 24.9953C34.7568 24.9953 34.7152 24.9807 34.6819 24.9538C33.8095 24.3029 32.944 23.6174 32.1062 22.9181C32.0686 22.8805 32.0474 22.8294 32.0474 22.7762C32.0474 22.7229 32.0686 22.6719 32.1062 22.6342C32.1447 22.5982 32.1954 22.5782 32.2481 22.5782C32.3008 22.5782 32.3515 22.5982 32.39 22.6342C33.214 23.3266 34.0726 24.019 34.945 24.6629C34.986 24.6968 35.0125 24.7452 35.0189 24.798C35.0254 24.8508 35.0112 24.9041 34.9795 24.9468C34.956 24.9694 34.9273 24.9856 34.8958 24.9941C34.8643 25.0026 34.8313 25.003 34.7996 24.9953Z" fill="black"/>
<g opacity="0.13">
<path d="M95.3907 9.91504H0.602417V12.7262H95.3907V9.91504Z" fill="black"/>
</g>
</svg>
