<svg width="100" height="80" viewBox="0 0 100 80" fill="none" xmlns="http://www.w3.org/2000/svg">
<path d="M0.999992 66L87 66L87 6L0.999992 6L0.999992 66Z" fill="white"/>
<path d="M87.4478 67H0.552179C0.405731 67 0.265249 66.9411 0.161695 66.8363C0.0581404 66.7315 0 66.5894 0 66.4412V5.55885C0 5.41063 0.0581404 5.26849 0.161695 5.16368C0.265249 5.05888 0.405731 5 0.552179 5H87.4478C87.5943 5 87.7348 5.05888 87.8383 5.16368C87.9419 5.26849 88 5.41063 88 5.55885V66.4412C88 66.5894 87.9419 66.7315 87.8383 66.8363C87.7348 66.9411 87.5943 67 87.4478 67ZM1.12969 65.8823H86.9211V6.14339H1.10436L1.12969 65.8823Z" fill="black"/>
<path d="M0.999992 11L87 11V3L0.999992 3V11Z" fill="#F35A05"/>
<path d="M87.4478 12H0.552179C0.405731 12 0.265249 11.9421 0.161695 11.8391C0.0581404 11.736 0 11.5963 0 11.4505V3.54947C0 3.40374 0.0581404 3.26398 0.161695 3.16094C0.265249 3.05789 0.405731 3 0.552179 3H87.4478C87.5943 3 87.7348 3.05789 87.8383 3.16094C87.9419 3.26398 88 3.40374 88 3.54947V11.4505C88 11.5963 87.9419 11.736 87.8383 11.8391C87.7348 11.9421 87.5943 12 87.4478 12ZM1.12969 10.9011H86.9211V4.09895H1.10436L1.12969 10.9011Z" fill="black"/>
<path d="M21 20H10V27H21V20Z" fill="white"/>
<path d="M20.4545 27H9.54545C9.40079 27 9.26202 26.945 9.15973 26.8472C9.05743 26.7493 9 26.6166 9 26.4783V19.5217C9 19.4532 9.01407 19.3854 9.04148 19.3221C9.06889 19.2588 9.10908 19.2013 9.15973 19.1528C9.21038 19.1044 9.27049 19.0659 9.33667 19.0397C9.40285 19.0135 9.47382 19 9.54545 19H20.4545C20.5262 19 20.5972 19.0135 20.6633 19.0397C20.7295 19.0659 20.7896 19.1044 20.8403 19.1528C20.8909 19.2013 20.9311 19.2588 20.9585 19.3221C20.9859 19.3854 21 19.4532 21 19.5217V26.4783C21 26.6166 20.9426 26.7493 20.8403 26.8472C20.738 26.945 20.5992 27 20.4545 27ZM10.0658 25.9565H19.8841V20.0435H10.0658V25.9565Z" fill="black"/>
<path d="M40 20H29V27H40V20Z" fill="white"/>
<path d="M40.4091 27H28.5909C28.4342 27 28.2839 26.945 28.173 26.8472C28.0622 26.7493 28 26.6166 28 26.4783V19.5217C28 19.4532 28.0152 19.3854 28.0449 19.3221C28.0746 19.2588 28.1182 19.2013 28.173 19.1528C28.2279 19.1044 28.2931 19.0659 28.3648 19.0397C28.4365 19.0135 28.5133 19 28.5909 19H40.4091C40.4867 19 40.5635 19.0135 40.6352 19.0397C40.7069 19.0659 40.772 19.1044 40.8269 19.1528C40.8818 19.2013 40.9253 19.2588 40.955 19.3221C40.9847 19.3854 41 19.4532 41 19.5217V26.4783C41 26.6166 40.9377 26.7493 40.8269 26.8472C40.7161 26.945 40.5658 27 40.4091 27ZM29.1818 25.9565H39.8182V20.0435H29.1818V25.9565Z" fill="black"/>
<path d="M59 20H48V27H59V20Z" fill="white"/>
<path d="M59.4091 27H47.5909C47.5131 27.0008 47.4359 26.9878 47.3638 26.9619C47.2917 26.936 47.2261 26.8976 47.1711 26.8489C47.116 26.8003 47.0725 26.7425 47.0432 26.6788C47.0138 26.6152 46.9991 26.547 47 26.4782V19.5218C46.9991 19.453 47.0138 19.3848 47.0432 19.3212C47.0725 19.2575 47.116 19.1997 47.1711 19.1511C47.2261 19.1024 47.2917 19.064 47.3638 19.0381C47.4359 19.0122 47.5131 18.9992 47.5909 19H59.4091C59.4867 19 59.5635 19.0135 59.6352 19.0397C59.7069 19.066 59.7721 19.1044 59.827 19.1528C59.8818 19.2013 59.9254 19.2588 59.9551 19.3221C59.9848 19.3854 60 19.4533 60 19.5218V26.4782C60 26.6166 59.9378 26.7493 59.827 26.8472C59.7161 26.945 59.5658 27 59.4091 27ZM48.1818 25.9565H58.8182V20.0435H48.1818V25.9565Z" fill="black"/>
<path d="M78 20H67V27H78V20Z" fill="white"/>
<path d="M78.4545 27H67.5455C67.4736 27.0008 67.4023 26.9878 67.3357 26.9619C67.2692 26.936 67.2087 26.8976 67.1579 26.8489C67.1071 26.8003 67.0669 26.7425 67.0398 26.6788C67.0127 26.6152 66.9992 26.547 67 26.4782V19.5218C66.9992 19.453 67.0127 19.3848 67.0398 19.3212C67.0669 19.2575 67.1071 19.1997 67.1579 19.1511C67.2087 19.1024 67.2692 19.064 67.3357 19.0381C67.4023 19.0122 67.4736 18.9992 67.5455 19H78.4545C78.5262 19 78.5972 19.0135 78.6633 19.0397C78.7295 19.066 78.7896 19.1044 78.8403 19.1528C78.8909 19.2013 78.9311 19.2588 78.9585 19.3221C78.9859 19.3854 79 19.4533 79 19.5218V26.4782C79 26.6166 78.9426 26.7493 78.8403 26.8472C78.738 26.945 78.5992 27 78.4545 27ZM68.0909 25.9565H77.9405V20.0435H68.1222L68.0909 25.9565Z" fill="black"/>
<path d="M21 36H10V43H21V36Z" fill="white"/>
<path d="M20.4545 44H9.54545C9.40079 44 9.26202 43.945 9.15973 43.8472C9.05743 43.7493 9 43.6166 9 43.4783V36.5217C9 36.3834 9.05743 36.2507 9.15973 36.1528C9.26202 36.055 9.40079 36 9.54545 36H20.4545C20.5992 36 20.738 36.055 20.8403 36.1528C20.9426 36.2507 21 36.3834 21 36.5217V43.4783C21 43.6166 20.9426 43.7493 20.8403 43.8472C20.738 43.945 20.5992 44 20.4545 44ZM10.0658 42.9565H19.8841V37.0435H10.0658V42.9565Z" fill="black"/>
<path d="M40 36H29V43H40V36Z" fill="white"/>
<path d="M40.4091 44H28.5909C28.4342 44 28.2839 43.945 28.173 43.8472C28.0622 43.7493 28 43.6166 28 43.4783V36.5217C28 36.3834 28.0622 36.2507 28.173 36.1528C28.2839 36.055 28.4342 36 28.5909 36H40.4091C40.5658 36 40.7161 36.055 40.8269 36.1528C40.9377 36.2507 41 36.3834 41 36.5217V43.4783C41 43.6166 40.9377 43.7493 40.8269 43.8472C40.7161 43.945 40.5658 44 40.4091 44ZM29.1818 42.9565H39.8182V37.0435H29.1818V42.9565Z" fill="black"/>
<path d="M59 36H48V43H59V36Z" fill="white"/>
<path d="M59.4091 44H47.5909C47.5131 44.0008 47.4359 43.9878 47.3638 43.9619C47.2917 43.9359 47.2261 43.8976 47.1711 43.8489C47.116 43.8003 47.0725 43.7425 47.0432 43.6788C47.0138 43.6152 46.9991 43.547 47 43.4782V36.5218C46.9991 36.453 47.0138 36.3848 47.0432 36.3212C47.0725 36.2575 47.116 36.1997 47.1711 36.1511C47.2261 36.1024 47.2917 36.064 47.3638 36.0381C47.4359 36.0122 47.5131 35.9992 47.5909 36H59.4091C59.5658 36 59.7161 36.055 59.827 36.1528C59.9378 36.2507 60 36.3834 60 36.5218V43.4782C60 43.6166 59.9378 43.7493 59.827 43.8471C59.7161 43.945 59.5658 44 59.4091 44ZM48.1818 42.9565H58.8182V37.0435H48.1818V42.9565Z" fill="black"/>
<path d="M78 36H67V43H78V36Z" fill="white"/>
<path d="M78.4545 44H67.5455C67.4736 44.0008 67.4023 43.9878 67.3357 43.9619C67.2692 43.9359 67.2087 43.8976 67.1579 43.8489C67.1071 43.8003 67.0669 43.7425 67.0398 43.6788C67.0127 43.6152 66.9992 43.547 67 43.4782V36.5218C66.9992 36.453 67.0127 36.3848 67.0398 36.3212C67.0669 36.2575 67.1071 36.1997 67.1579 36.1511C67.2087 36.1024 67.2692 36.064 67.3357 36.0381C67.4023 36.0122 67.4736 35.9992 67.5455 36H78.4545C78.5992 36 78.738 36.055 78.8403 36.1528C78.9426 36.2507 79 36.3834 79 36.5218V43.4782C79 43.6166 78.9426 43.7493 78.8403 43.8471C78.738 43.945 78.5992 44 78.4545 44ZM68.0909 42.9565H77.9405V37.0435H68.1222L68.0909 42.9565Z" fill="black"/>
<path d="M21 51H10V58H21V51Z" fill="white"/>
<path d="M20.4545 59H9.54545C9.40079 59 9.26202 58.9382 9.15973 58.8281C9.05743 58.718 9 58.5687 9 58.413V50.587C9 50.4313 9.05743 50.282 9.15973 50.1719C9.26202 50.0618 9.40079 50 9.54545 50H20.4545C20.5992 50 20.738 50.0618 20.8403 50.1719C20.9426 50.282 21 50.4313 21 50.587V58.413C21 58.5687 20.9426 58.718 20.8403 58.8281C20.738 58.9382 20.5992 59 20.4545 59ZM10.0658 57.8261H19.8841V51.1739H10.0658V57.8261Z" fill="black"/>
<path d="M40 51H29V58H40V51Z" fill="white"/>
<path d="M40.4091 59H28.5909C28.4342 59 28.2839 58.9382 28.173 58.8281C28.0622 58.718 28 58.5687 28 58.413V50.587C28 50.4313 28.0622 50.282 28.173 50.1719C28.2839 50.0618 28.4342 50 28.5909 50H40.4091C40.5658 50 40.7161 50.0618 40.8269 50.1719C40.9377 50.282 41 50.4313 41 50.587V58.413C41 58.5687 40.9377 58.718 40.8269 58.8281C40.7161 58.9382 40.5658 59 40.4091 59ZM29.1818 57.8261H39.8182V51.1739H29.1818V57.8261Z" fill="black"/>
<path d="M59 51H48V58H59V51Z" fill="white"/>
<path d="M59.4091 59H47.5909C47.5131 59.0009 47.4359 58.9863 47.3638 58.9571C47.2917 58.9279 47.2261 58.8847 47.1711 58.8301C47.116 58.7754 47.0725 58.7103 47.0432 58.6387C47.0138 58.5671 46.9991 58.4903 47 58.413V50.587C46.9991 50.5097 47.0138 50.4329 47.0432 50.3613C47.0725 50.2897 47.116 50.2246 47.1711 50.1699C47.2261 50.1153 47.2917 50.0721 47.3638 50.0429C47.4359 50.0137 47.5131 49.9991 47.5909 50H59.4091C59.5658 50 59.7161 50.0619 59.827 50.172C59.9378 50.282 60 50.4313 60 50.587V58.413C60 58.5687 59.9378 58.718 59.827 58.828C59.7161 58.9381 59.5658 59 59.4091 59ZM48.1818 57.8261H58.8182V51.1739H48.1818V57.8261Z" fill="black"/>
<path d="M78 51H67V58H78V51Z" fill="white"/>
<path d="M78.4545 59H67.5455C67.4736 59.0009 67.4023 58.9863 67.3357 58.9571C67.2692 58.9279 67.2087 58.8847 67.1579 58.8301C67.1071 58.7754 67.0669 58.7103 67.0398 58.6387C67.0127 58.5671 66.9992 58.4903 67 58.413V50.587C66.9992 50.5097 67.0127 50.4329 67.0398 50.3613C67.0669 50.2897 67.1071 50.2246 67.1579 50.1699C67.2087 50.1153 67.2692 50.0721 67.3357 50.0429C67.4023 50.0137 67.4736 49.9991 67.5455 50H78.4545C78.5992 50 78.738 50.0619 78.8403 50.172C78.9426 50.282 79 50.4313 79 50.587V58.413C79 58.5687 78.9426 58.718 78.8403 58.828C78.738 58.9381 78.5992 59 78.4545 59ZM68.0909 57.8261H77.9405V51.1739H68.1222L68.0909 57.8261Z" fill="black"/>
<path d="M60.4998 7.99996C60.3673 7.99996 60.2401 7.94398 60.1464 7.84435C60.0526 7.74471 60 7.60957 60 7.46867V0.531295C60 0.390386 60.0526 0.25525 60.1464 0.155613C60.2401 0.0559761 60.3673 0 60.4998 0C60.6324 0 60.7596 0.0559761 60.8533 0.155613C60.9471 0.25525 60.9997 0.390386 60.9997 0.531295V7.45645C61.002 7.52746 60.9908 7.59824 60.9667 7.6645C60.9425 7.73076 60.9059 7.79112 60.8592 7.84193C60.8125 7.89274 60.7565 7.93295 60.6948 7.96011C60.633 7.98727 60.5667 8.00083 60.4998 7.99996Z" fill="black"/>
<path d="M27.4998 7.99996C27.3673 7.99996 27.2402 7.94398 27.1464 7.84435C27.0527 7.74471 27 7.60957 27 7.46867V0.531295C27 0.390386 27.0527 0.25525 27.1464 0.155613C27.2402 0.0559761 27.3673 0 27.4998 0C27.6324 0 27.7596 0.0559761 27.8533 0.155613C27.9471 0.25525 27.9997 0.390386 27.9997 0.531295V7.45645C28.002 7.52746 27.9908 7.59824 27.9667 7.6645C27.9425 7.73076 27.9059 7.79112 27.8592 7.84193C27.8125 7.89274 27.7566 7.93295 27.6948 7.96011C27.6331 7.98727 27.5667 8.00083 27.4998 7.99996Z" fill="black"/>
<path d="M30.1748 22C30.1295 21.9983 30.0861 21.9807 30.0521 21.9501C30.0188 21.9162 30 21.8702 30 21.8223C30 21.7743 30.0188 21.7284 30.0521 21.6945C30.5736 21.127 31.1319 20.5721 31.6964 20.0483C31.7311 20.0172 31.7758 20 31.8221 20C31.8684 20 31.9132 20.0172 31.9479 20.0483C31.9813 20.0822 32 20.1282 32 20.1761C32 20.2241 31.9813 20.27 31.9479 20.304C31.3896 20.8215 30.8374 21.3702 30.322 21.9252C30.3049 21.9484 30.2827 21.9673 30.2571 21.9803C30.2316 21.9932 30.2034 22 30.1748 22Z" fill="black"/>
<path d="M37.2356 25.9997C37.2043 26.0013 37.1731 25.9963 37.1438 25.9852C37.1145 25.974 37.088 25.9569 37.0656 25.935C37.0235 25.89 37 25.8307 37 25.7691C37 25.7075 37.0235 25.6482 37.0656 25.6032L38.5958 24.0655C38.6408 24.0234 38.7001 24 38.7617 24C38.8234 24 38.8827 24.0234 38.9277 24.0655C38.9505 24.0867 38.9687 24.1124 38.9811 24.141C38.9936 24.1695 39 24.2003 39 24.2314C39 24.2626 38.9936 24.2934 38.9811 24.3219C38.9687 24.3505 38.9505 24.3761 38.9277 24.3973L37.3975 25.935C37.3767 25.9567 37.3515 25.9737 37.3236 25.9849C37.2956 25.9961 37.2657 26.0011 37.2356 25.9997Z" fill="black"/>
<path d="M11.1374 37.9995C11.1027 37.9979 11.0691 37.9863 11.0409 37.9662C11.0147 37.9404 11 37.9053 11 37.8688C11 37.8323 11.0147 37.7972 11.0409 37.7714C11.2676 37.5196 11.5232 37.2962 11.7595 37.0397C11.7728 37.0269 11.7886 37.0168 11.8058 37.01C11.8231 37.0032 11.8416 36.9998 11.8602 37C11.8787 37.0002 11.8971 37.0041 11.9142 37.0113C11.9312 37.0185 11.9467 37.0289 11.9597 37.042C11.9727 37.0551 11.983 37.0706 11.9899 37.0876C11.9968 37.1046 12.0002 37.1228 12 37.1411C11.9998 37.1594 11.9958 37.1775 11.9885 37.1944C11.9812 37.2112 11.9706 37.2264 11.9573 37.2392C11.7113 37.4673 11.475 37.7144 11.2483 37.9519C11.2354 37.9684 11.2185 37.9814 11.1991 37.9898C11.1797 37.9981 11.1585 38.0014 11.1374 37.9995Z" fill="black"/>
<path d="M11.1965 40.9997C11.1589 40.9998 11.1221 40.9899 11.0904 40.9711C11.0587 40.9524 11.0335 40.9255 11.0178 40.8939C11.0021 40.8622 10.9966 40.827 11.002 40.7925C11.0073 40.758 11.0233 40.7256 11.0479 40.6993C12.2031 39.4474 13.4192 38.1955 14.669 37.0501C14.706 37.0174 14.7553 36.9994 14.8064 37C14.8576 37.0006 14.9064 37.0197 14.9426 37.0532C14.9787 37.0867 14.9994 37.1319 15 37.1793C15.0006 37.2267 14.9812 37.2724 14.946 37.3067C13.7097 38.471 12.4936 39.6978 11.3451 40.9371C11.3277 40.9579 11.305 40.9745 11.2792 40.9854C11.2533 40.9963 11.2249 41.0012 11.1965 40.9997Z" fill="black"/>
<path d="M13.1763 41.9982C13.1326 41.9974 13.0903 41.9851 13.0548 41.9628C13.0196 41.93 13 41.8868 13 41.8419C13 41.797 13.0196 41.7538 13.0548 41.721C14.5206 40.1168 16.0742 38.5481 17.6684 37.0501C17.7051 37.018 17.7549 37 17.8068 37C17.8587 37 17.9086 37.018 17.9453 37.0501C17.9805 37.0828 18 37.1261 18 37.171C18 37.2159 17.9805 37.2591 17.9453 37.2919C16.3579 38.784 14.811 40.3468 13.3519 41.9451C13.3296 41.9655 13.3021 41.981 13.2715 41.9903C13.241 41.9995 13.2083 42.0022 13.1763 41.9982Z" fill="black"/>
<path d="M16.1809 41.9981C16.1577 41.999 16.1346 41.996 16.1128 41.989C16.091 41.9821 16.0711 41.9714 16.0541 41.9577C16.0194 41.9257 16 41.8834 16 41.8395C16 41.7955 16.0194 41.7533 16.0541 41.7212C17.2491 40.4982 18.4574 39.2637 19.659 38.0581C19.6757 38.0414 19.696 38.0277 19.7187 38.0179C19.7415 38.008 19.7663 38.0021 19.7918 38.0004C19.8172 37.9988 19.8427 38.0016 19.8669 38.0085C19.8911 38.0154 19.9135 38.0264 19.9327 38.0408C19.952 38.0552 19.9678 38.0727 19.9793 38.0924C19.9907 38.1121 19.9976 38.1335 19.9995 38.1555C20.0013 38.1774 19.9981 38.1995 19.9901 38.2204C19.9821 38.2413 19.9694 38.2606 19.9528 38.2773C18.7511 39.483 17.5428 40.7117 16.3545 41.9404C16.3339 41.9623 16.307 41.9791 16.2766 41.9892C16.2461 41.9994 16.2132 42.0024 16.1809 41.9981Z" fill="black"/>
<path d="M18.3155 41.9955C18.2581 42.0015 18.198 42.0015 18.1406 41.9955C18.0706 41.9753 18.0224 41.9446 18.0061 41.9099C17.9897 41.8752 18.0066 41.8392 18.0532 41.8096C18.4904 41.5465 18.9714 41.2834 19.4633 41.0385C19.5228 41.0138 19.6033 41 19.6874 41C19.7714 41 19.8521 41.0138 19.9115 41.0385C19.9684 41.0637 20 41.0969 20 41.1315C20 41.166 19.9684 41.1993 19.9115 41.2245C19.4306 41.4649 18.9605 41.7189 18.5342 41.9774C18.4694 41.9946 18.3913 42.0011 18.3155 41.9955Z" fill="black"/>
<path d="M30.1788 25C30.154 25.0005 30.1293 24.9951 30.1067 24.9843C30.0841 24.9734 30.0641 24.9574 30.0481 24.9373C30.0172 24.9024 30 24.8565 30 24.8087C30 24.761 30.0172 24.7151 30.0481 24.6802C31.3139 23.5329 32.5441 22.3103 33.7029 21.0564C33.7185 21.0391 33.7372 21.0253 33.7579 21.0156C33.7786 21.0059 33.8008 21.0006 33.8235 21.0001C33.8461 20.9995 33.8686 21.0036 33.8897 21.0122C33.9108 21.0208 33.9301 21.0337 33.9465 21.0502C33.9629 21.0666 33.9761 21.0863 33.9852 21.1082C33.9944 21.13 33.9994 21.1535 33.9999 21.1774C34.0005 21.2012 33.9966 21.225 33.9884 21.2473C33.9803 21.2696 33.968 21.2899 33.9524 21.3072C32.7639 22.5611 31.5754 23.815 30.2739 24.9561C30.248 24.9818 30.2144 24.9973 30.1788 25Z" fill="black"/>
<path d="M32.1912 26C32.153 26 32.1157 25.9897 32.084 25.9704C32.0524 25.9511 32.0278 25.9237 32.0137 25.8917C31.9995 25.8597 31.9963 25.8246 32.0044 25.791C32.0125 25.7573 32.0317 25.7267 32.0594 25.7029C33.8727 24.1164 35.7652 22.5478 37.6708 21.0504C37.7066 21.0181 37.7552 21 37.8059 21C37.8566 21 37.9052 21.0181 37.9411 21.0504C37.9597 21.066 37.9745 21.0849 37.9846 21.1058C37.9948 21.1268 38 21.1494 38 21.1722C38 21.1951 37.9948 21.2177 37.9846 21.2387C37.9745 21.2596 37.9597 21.2785 37.9411 21.2941C36.042 22.7855 34.1562 24.3482 32.3429 25.9346C32.3245 25.9549 32.3014 25.9713 32.2752 25.9826C32.249 25.9939 32.2203 25.9998 32.1912 26Z" fill="black"/>
<path d="M35.1724 25.9997C35.1255 25.999 35.0808 25.9784 35.0479 25.9423C35.0171 25.9068 35 25.86 35 25.8114C35 25.7628 35.0171 25.716 35.0479 25.6805C36.2328 24.4547 37.471 23.2289 38.7091 22.0542C38.7414 22.0195 38.785 22 38.8306 22C38.8761 22 38.9198 22.0195 38.9521 22.0542C38.9829 22.0897 39 22.1365 39 22.1851C39 22.2337 38.9829 22.2805 38.9521 22.3159C37.7198 23.4907 36.4876 24.7101 35.3027 25.9359C35.2874 25.9571 35.2676 25.974 35.2449 25.9851C35.2222 25.9962 35.1973 26.0013 35.1724 25.9997Z" fill="black"/>
<path d="M49.2002 53.9999C49.1512 53.9999 49.1034 53.9864 49.0641 53.9614C49.023 53.9266 49 53.8794 49 53.8302C49 53.7809 49.023 53.7337 49.0641 53.6989L50.6289 52.0723C50.6466 52.0528 50.6688 52.0365 50.694 52.0243C50.7193 52.0122 50.7471 52.0043 50.776 52.0014C50.8048 51.9984 50.8341 52.0003 50.862 52.007C50.89 52.0137 50.9161 52.025 50.9388 52.0403C50.9781 52.0759 51 52.1228 51 52.1716C51 52.2203 50.9781 52.2672 50.9388 52.3028L49.3741 53.9358C49.3526 53.9568 49.3258 53.9735 49.2957 53.9846C49.2657 53.9957 49.233 54.0009 49.2002 53.9999Z" fill="black"/>
<path d="M49.1781 56.9933C49.144 57.0022 49.1084 57.0022 49.0744 56.9933C49.0363 56.9646 49.0106 56.9221 49.0026 56.8745C48.9946 56.8269 49.0051 56.7781 49.0317 56.7382C50.1626 55.1081 51.3846 53.5459 52.6918 52.0593C52.7074 52.0417 52.7263 52.0274 52.7473 52.0173C52.7684 52.0072 52.7911 52.0014 52.8144 52.0002C52.8376 51.9991 52.8608 52.0026 52.8827 52.0106C52.9045 52.0186 52.9247 52.0309 52.9419 52.0468C52.9592 52.0628 52.9731 52.082 52.983 52.1034C52.993 52.1249 52.9987 52.1481 52.9998 52.1718C53.0009 52.1955 52.9975 52.2192 52.9897 52.2415C52.9818 52.2638 52.9698 52.2844 52.9541 52.3019C51.6434 53.7745 50.4211 55.3266 49.294 56.9497C49.2615 56.9775 49.2205 56.9929 49.1781 56.9933Z" fill="black"/>
<path d="M52.1585 56.9978C52.1187 56.9979 52.0799 56.984 52.0474 56.9581C52.0169 56.9212 52 56.8726 52 56.8222C52 56.7717 52.0169 56.7231 52.0474 56.6863L54.7103 53.0537C54.7428 53.0192 54.7858 53 54.8303 53C54.8749 53 54.9177 53.0192 54.9503 53.0537C54.9821 53.0897 55 53.1386 55 53.1896C55 53.2405 54.9821 53.2894 54.9503 53.3255L52.2873 56.9581C52.2695 56.9745 52.2489 56.9866 52.2267 56.9935C52.2045 57.0003 52.1813 57.0018 52.1585 56.9978Z" fill="black"/>
<path d="M55.1861 57C55.1462 57 55.1075 56.9891 55.0764 56.9691C55.0565 56.9578 55.0397 56.9435 55.0269 56.9269C55.0141 56.9104 55.0056 56.8919 55.002 56.8727C54.9984 56.8534 54.9997 56.8338 55.0058 56.8149C55.012 56.7961 55.0228 56.7784 55.0377 56.763L55.6829 56.0419C55.7148 56.0174 55.7564 56.0026 55.8006 56.0003C55.8448 55.998 55.8886 56.0083 55.9242 56.0293C55.9598 56.0503 55.9848 56.0806 55.995 56.115C56.0052 56.1494 55.9998 56.1856 55.9797 56.2171L55.3345 56.9382C55.3183 56.9576 55.2962 56.9734 55.2702 56.9842C55.2443 56.995 55.2154 57.0004 55.1861 57Z" fill="black"/>
<g opacity="0.13">
<path d="M87.4414 11.47H0.552124V14.0469H87.4414V11.47Z" fill="black"/>
</g>
<path d="M76.7004 78.8671C89.2774 78.8671 99.473 68.6714 99.473 56.0944C99.473 43.5173 89.2774 33.3217 76.7004 33.3217C64.1234 33.3217 53.9276 43.5173 53.9276 56.0944C53.9276 68.6714 64.1234 78.8671 76.7004 78.8671Z" fill="white"/>
<path d="M76.7004 79.3939C72.0904 79.3951 67.5836 78.0291 63.7501 75.4687C59.9166 72.9083 56.9285 69.2685 55.1638 65.0097C53.3991 60.7509 52.937 56.0644 53.8361 51.543C54.7351 47.0216 56.955 42.8683 60.2147 39.6086C63.4744 36.3489 67.6276 34.1291 72.1491 33.2301C76.6705 32.331 81.357 32.793 85.6158 34.5577C89.8746 36.3224 93.5143 39.3105 96.0747 43.1441C98.6351 46.9776 100.001 51.4843 100 56.0943C99.9919 62.2713 97.5346 68.193 93.1668 72.5607C88.799 76.9285 82.8773 79.3859 76.7004 79.3939ZM76.7004 33.8424C72.2981 33.8365 67.9929 35.1364 64.3296 37.5778C60.6664 40.0192 57.8096 43.4924 56.1207 47.5579C54.4319 51.6233 53.9869 56.0984 54.8421 60.4168C55.6972 64.7352 57.8141 68.7029 60.9249 71.818C64.0357 74.933 68.0005 77.0553 72.3178 77.9163C76.635 78.7774 81.1107 78.3385 85.1784 76.6552C89.2462 74.9719 92.7232 72.1198 95.1696 68.4599C97.616 64.7999 98.9219 60.4966 98.9219 56.0943C98.9155 50.1999 96.5732 44.5484 92.4081 40.3776C88.243 36.2068 82.5947 33.8569 76.7004 33.8424Z" fill="black"/>
<path d="M76.7005 40.2504C76.5607 40.2504 76.4267 40.1948 76.3278 40.096C76.229 39.9972 76.1735 39.8632 76.1735 39.7234V36.6346C76.1735 36.4948 76.229 36.3608 76.3278 36.262C76.4267 36.1632 76.5607 36.1077 76.7005 36.1077C76.8402 36.1077 76.9742 36.1632 77.073 36.262C77.1718 36.3608 77.2274 36.4948 77.2274 36.6346V39.7234C77.2274 39.8632 77.1718 39.9972 77.073 40.096C76.9742 40.1948 76.8402 40.2504 76.7005 40.2504Z" fill="black"/>
<path d="M76.7005 76.081C76.5607 76.081 76.4267 76.0255 76.3278 75.9267C76.229 75.8279 76.1735 75.6938 76.1735 75.5541V72.4592C76.1735 72.3194 76.229 72.1854 76.3278 72.0866C76.4267 71.9878 76.5607 71.9323 76.7005 71.9323C76.8402 71.9323 76.9742 71.9878 77.073 72.0866C77.1718 72.1854 77.2274 72.3194 77.2274 72.4592V75.5541C77.2274 75.6938 77.1718 75.8279 77.073 75.9267C76.9742 76.0255 76.8402 76.081 76.7005 76.081Z" fill="black"/>
<path d="M96.1601 56.6212H93.0712C92.9315 56.6212 92.7975 56.5657 92.6987 56.4669C92.5999 56.3681 92.5443 56.234 92.5443 56.0943C92.5443 55.9546 92.5999 55.8205 92.6987 55.7217C92.7975 55.6229 92.9315 55.5674 93.0712 55.5674H96.1601C96.2998 55.5674 96.4339 55.6229 96.5327 55.7217C96.6315 55.8205 96.6871 55.9546 96.6871 56.0943C96.6871 56.234 96.6315 56.3681 96.5327 56.4669C96.4339 56.5657 96.2998 56.6212 96.1601 56.6212Z" fill="black"/>
<path d="M63.364 58H59.636C59.4673 58 59.3055 57.9473 59.1862 57.8536C59.067 57.7598 59 57.6326 59 57.5C59 57.3674 59.067 57.2402 59.1862 57.1464C59.3055 57.0527 59.4673 57 59.636 57H63.364C63.5327 57 63.6944 57.0527 63.8137 57.1464C63.9329 57.2402 64 57.3674 64 57.5C64 57.6326 63.9329 57.7598 63.8137 57.8536C63.6944 57.9473 63.5327 58 63.364 58Z" fill="black"/>
<path d="M77.2273 56.0943C77.124 56.0915 77.0237 56.0588 76.9387 56C76.8537 55.9413 76.7876 55.8591 76.7485 55.7635C76.7093 55.6679 76.6988 55.5629 76.7182 55.4615C76.7376 55.36 76.7861 55.2663 76.8577 55.1919L85.3006 46.7248C85.4002 46.63 85.5329 46.5778 85.6704 46.5795C85.808 46.5812 85.9394 46.6366 86.0366 46.7338C86.1339 46.831 86.1893 46.9625 86.1909 47.1C86.1926 47.2375 86.1404 47.3702 86.0456 47.4698L77.6028 55.9126C77.5554 55.9664 77.4977 56.0101 77.4332 56.0413C77.3688 56.0725 77.2988 56.0905 77.2273 56.0943Z" fill="black"/>
<path d="M76.7005 58.5532C78.0585 58.5532 79.1594 57.4523 79.1594 56.0943C79.1594 54.7362 78.0585 53.6353 76.7005 53.6353C75.3424 53.6353 74.2415 54.7362 74.2415 56.0943C74.2415 57.4523 75.3424 58.5532 76.7005 58.5532Z" fill="white"/>
<path d="M76.7004 59.0802C76.1099 59.0802 75.5325 58.9051 75.0415 58.577C74.5505 58.2489 74.1677 57.7825 73.9418 57.2369C73.7158 56.6913 73.6566 56.091 73.7719 55.5118C73.8871 54.9326 74.1715 54.4005 74.589 53.9829C75.0066 53.5654 75.5386 53.281 76.1178 53.1658C76.697 53.0506 77.2974 53.1097 77.843 53.3357C78.3886 53.5617 78.855 53.9444 79.1831 54.4354C79.5112 54.9264 79.6863 55.5037 79.6863 56.0943C79.6847 56.8857 79.3695 57.6443 78.8099 58.2039C78.2503 58.7635 77.4918 59.0786 76.7004 59.0802ZM76.7004 54.1622C76.3183 54.1622 75.9447 54.2756 75.627 54.4879C75.3093 54.7001 75.0616 55.0019 74.9154 55.3549C74.7691 55.708 74.7309 56.0964 74.8054 56.4712C74.88 56.846 75.064 57.1903 75.3342 57.4605C75.6044 57.7307 75.9486 57.9147 76.3234 57.9892C76.6982 58.0638 77.0867 58.0255 77.4397 57.8793C77.7928 57.733 78.0945 57.4854 78.3068 57.1677C78.5191 56.8499 78.6324 56.4764 78.6324 56.0943C78.6324 55.5819 78.4289 55.0905 78.0665 54.7281C77.7042 54.3658 77.2128 54.1622 76.7004 54.1622Z" fill="black"/>
<g opacity="0.13">
<path d="M54.6241 52.4725C54.6544 52.2787 54.6847 52.0848 54.721 51.8668C55.0837 49.8489 55.7429 47.8957 56.6773 46.0707C56.5803 45.9321 56.4542 45.8163 56.3078 45.7315C55.0082 47.1349 53.9428 48.7381 53.1524 50.4799C52.5081 51.8596 52.0029 53.3001 51.6442 54.78C51.5716 55.099 51.505 55.42 51.4444 55.743C51.1961 57.4631 51.2627 58.8803 51.826 61.6603C51.9664 62.4641 52.2171 63.2447 52.5709 63.9799C52.6245 64.2149 52.7398 64.4313 52.9048 64.6069C53.0698 64.7826 53.2786 64.9111 53.5097 64.9793C53.7641 65.044 54.0322 65.0306 54.2789 64.9409C54.5256 64.8512 54.7397 64.6893 54.8932 64.4764C55.0467 64.2634 55.1326 64.0092 55.1397 63.7467C55.1468 63.4843 55.0748 63.2258 54.933 63.0048L54.9694 63.0533C54.9487 63.0161 54.9305 62.9777 54.9148 62.9382C54.8421 62.6717 54.7634 62.4113 54.6786 62.1509C54.0161 60.3688 53.7777 58.4569 53.9821 56.5667C54.0352 55.1815 54.2506 53.8074 54.6241 52.4725Z" fill="black"/>
</g>
</svg>
